<?xml version="1.0" encoding="UTF-8" standalone="no"?>
<svg
   width="12.175pt"
   height="13.139pt"
   viewBox="0 0 12.175 13.139"
   version="1.2"
   id="svg678"
   sodipodi:docname="save_location.svg"
   inkscape:version="1.1.1 (3bf5ae0d25, 2021-09-20)"
   xmlns:inkscape="http://www.inkscape.org/namespaces/inkscape"
   xmlns:sodipodi="http://sodipodi.sourceforge.net/DTD/sodipodi-0.dtd"
   xmlns:xlink="http://www.w3.org/1999/xlink"
   xmlns="http://www.w3.org/2000/svg"
   xmlns:svg="http://www.w3.org/2000/svg">
  <sodipodi:namedview
     id="namedview680"
     pagecolor="#ffffff"
     bordercolor="#666666"
     borderopacity="1.0"
     inkscape:pageshadow="2"
     inkscape:pageopacity="0.0"
     inkscape:pagecheckerboard="0"
     inkscape:document-units="pt"
     showgrid="false"
     inkscape:zoom="45.77974"
     inkscape:cx="8.1149434"
     inkscape:cy="8.7702552"
     inkscape:window-width="1920"
     inkscape:window-height="991"
     inkscape:window-x="-9"
     inkscape:window-y="-9"
     inkscape:window-maximized="1"
     inkscape:current-layer="svg678" />
  <defs
     id="defs539">
    <g
       id="g534">
      <symbol
         overflow="visible"
         id="glyph0-0">
        <path
           style="stroke:none;"
           d="M 2.683594 -3.714844 C 2.683594 -1.652344 2.28125 0.078125 1.464844 1.46875 C 1.074219 1.117188 0.628906 0.742188 0.121094 0.34375 C 0.859375 -0.746094 1.230469 -2.179688 1.230469 -3.949219 L 1.230469 -7.894531 C 4.5 -7.988281 7.109375 -8.167969 9.058594 -8.429688 L 9.949219 -7.085938 C 7.980469 -6.867188 5.5625 -6.695312 2.683594 -6.574219 L 2.683594 -5.640625 L 10.152344 -5.640625 L 10.152344 -4.277344 L 2.683594 -4.277344 L 2.683594 -3.714844 M 3.238281 1.367188 L 3.238281 -3.34375 L 9.527344 -3.34375 L 9.527344 1.367188 L 8.09375 1.367188 L 8.09375 0.9375 L 4.671875 0.9375 L 4.671875 1.367188 L 3.238281 1.367188 M 8.09375 -2.011719 L 4.671875 -2.011719 L 4.671875 -0.394531 L 8.09375 -0.394531 L 8.09375 -2.011719 "
           id="path396" />
      </symbol>
      <symbol
         overflow="visible"
         id="glyph0-1">
        <path
           style="stroke:none;"
           d="M 7.550781 -7.515625 C 8.601562 -6.492188 9.574219 -5.484375 10.472656 -4.492188 L 9.335938 -3.53125 L 8.535156 -4.472656 C 5.597656 -4.425781 3.046875 -4.304688 0.882812 -4.105469 L 0.339844 -5.3125 C 1.683594 -6.144531 3.015625 -7.328125 4.335938 -8.859375 L 5.675781 -8.132812 C 4.707031 -7.214844 3.683594 -6.324219 2.601562 -5.445312 L 7.53125 -5.621094 L 6.484375 -6.769531 L 7.550781 -7.515625 M 1.300781 1.359375 L 1.300781 -3.449219 L 9.191406 -3.449219 L 9.191406 1.359375 L 7.796875 1.359375 L 7.796875 0.753906 L 2.695312 0.753906 L 2.695312 1.359375 L 1.300781 1.359375 M 7.796875 -2.175781 L 2.695312 -2.175781 L 2.695312 -0.515625 L 7.796875 -0.515625 L 7.796875 -2.175781 "
           id="path399" />
      </symbol>
      <symbol
         overflow="visible"
         id="glyph0-2">
        <path
           style="stroke:none;"
           d="M 0.625 -8.324219 L 9.867188 -8.324219 L 9.867188 -0.476562 C 9.867188 0.117188 9.738281 0.5625 9.46875 0.859375 C 9.207031 1.152344 8.839844 1.304688 8.375 1.3125 C 7.90625 1.320312 7.34375 1.328125 6.679688 1.328125 C 6.578125 0.78125 6.472656 0.308594 6.363281 -0.0976562 C 6.789062 -0.0546875 7.179688 -0.03125 7.535156 -0.03125 C 7.808594 -0.03125 8.003906 -0.0429688 8.113281 -0.0742188 C 8.226562 -0.101562 8.316406 -0.167969 8.390625 -0.273438 C 8.457031 -0.375 8.496094 -0.511719 8.496094 -0.679688 L 8.496094 -7.042969 L 1.996094 -7.042969 L 1.996094 1.304688 L 0.625 1.304688 L 0.625 -8.324219 M 7.992188 -5.046875 L 2.5 -5.046875 L 2.5 -6.214844 L 7.992188 -6.214844 L 7.992188 -5.046875 M 2.847656 -4.246094 L 7.601562 -4.246094 L 7.601562 -0.660156 L 4.179688 -0.660156 L 4.179688 -0.00390625 L 2.847656 -0.00390625 L 2.847656 -4.246094 M 6.269531 -1.808594 L 6.269531 -3.101562 L 4.179688 -3.101562 L 4.179688 -1.808594 L 6.269531 -1.808594 "
           id="path402" />
      </symbol>
      <symbol
         overflow="visible"
         id="glyph0-3">
        <path
           style="stroke:none;"
           d="M 0.257812 -5.355469 L 1.722656 -5.355469 L 1.722656 -7.976562 L 3.15625 -7.976562 L 3.15625 -5.355469 L 4.847656 -5.355469 L 4.847656 -8.734375 L 6.300781 -8.734375 L 6.300781 -7.667969 L 9.445312 -7.667969 L 9.445312 -6.429688 L 6.300781 -6.429688 L 6.300781 -5.355469 L 10.277344 -5.355469 L 10.277344 -4.09375 L 0.257812 -4.09375 L 0.257812 -5.355469 M 8.6875 -3.222656 L 9.734375 -2.199219 C 7.652344 -0.25 4.722656 0.949219 0.941406 1.410156 C 0.710938 0.90625 0.46875 0.425781 0.214844 -0.0273438 C 1.929688 -0.160156 3.445312 -0.453125 4.765625 -0.902344 L 4.765625 -3.859375 L 6.199219 -3.859375 L 6.199219 -1.484375 C 7.164062 -1.957031 7.996094 -2.535156 8.6875 -3.222656 M 2.828125 -3.714844 L 3.832031 -2.832031 C 3 -2.042969 2.117188 -1.320312 1.179688 -0.671875 C 0.960938 -0.980469 0.671875 -1.335938 0.316406 -1.746094 C 1.230469 -2.320312 2.070312 -2.976562 2.828125 -3.714844 "
           id="path405" />
      </symbol>
      <symbol
         overflow="visible"
         id="glyph0-4">
        <path
           style="stroke:none;"
           d="M 4.242188 -8.757812 L 5.933594 -8.519531 L 5.527344 -7.496094 L 9.425781 -7.496094 L 9.425781 1.359375 L 7.949219 1.359375 L 7.949219 0.742188 L 2.570312 0.742188 L 2.570312 1.367188 L 1.097656 1.367188 L 1.097656 -7.496094 L 3.941406 -7.496094 C 4.074219 -7.980469 4.171875 -8.398438 4.242188 -8.757812 M 7.949219 -6.152344 L 2.570312 -6.152344 L 2.570312 -5.160156 L 7.949219 -5.160156 L 7.949219 -6.152344 M 2.570312 -2.882812 L 7.949219 -2.882812 L 7.949219 -3.878906 L 2.570312 -3.878906 L 2.570312 -2.882812 M 2.570312 -0.597656 L 7.949219 -0.597656 L 7.949219 -1.605469 L 2.570312 -1.605469 L 2.570312 -0.597656 "
           id="path408" />
      </symbol>
      <symbol
         overflow="visible"
         id="glyph0-5">
        <path
           style="stroke:none;"
           d="M 4.046875 -3.570312 L 5.136719 -0.988281 C 5.605469 -1.835938 5.835938 -3.386719 5.824219 -5.640625 L 4.785156 -5.640625 L 4.785156 -6.992188 L 5.855469 -6.992188 L 5.871094 -8.734375 L 7.234375 -8.734375 L 7.214844 -6.992188 L 9.898438 -6.992188 L 9.78125 -1.203125 C 9.757812 -0.425781 9.726562 0.0625 9.679688 0.257812 C 9.632812 0.449219 9.539062 0.621094 9.394531 0.777344 C 9.253906 0.925781 9.066406 1.039062 8.832031 1.105469 C 8.601562 1.171875 7.988281 1.214844 7 1.222656 C 6.890625 0.707031 6.769531 0.195312 6.628906 -0.3125 C 7.082031 -0.285156 7.453125 -0.273438 7.75 -0.273438 C 7.949219 -0.273438 8.101562 -0.308594 8.207031 -0.390625 C 8.3125 -0.464844 8.375 -0.582031 8.394531 -0.730469 C 8.414062 -0.878906 8.433594 -1.402344 8.460938 -2.304688 C 8.488281 -3.203125 8.503906 -4.3125 8.515625 -5.640625 L 7.1875 -5.640625 C 7.15625 -4.121094 7.09375 -3.027344 7.003906 -2.371094 C 6.910156 -1.714844 6.722656 -1.046875 6.433594 -0.375 C 6.148438 0.296875 5.777344 0.898438 5.316406 1.417969 C 4.929688 1.113281 4.511719 0.824219 4.066406 0.558594 C 4.265625 0.359375 4.445312 0.144531 4.609375 -0.0820312 L 1.765625 0.160156 C 1.34375 0.210938 1.015625 0.28125 0.789062 0.375 L 0.152344 -0.867188 C 0.511719 -1.15625 0.949219 -2.230469 1.46875 -4.082031 L 0.195312 -4.082031 L 0.195312 -5.394531 L 4.929688 -5.394531 L 4.929688 -4.082031 L 2.960938 -4.082031 C 2.644531 -3.105469 2.304688 -2.152344 1.945312 -1.222656 C 2.566406 -1.238281 3.128906 -1.261719 3.632812 -1.292969 C 3.386719 -1.976562 3.144531 -2.609375 2.910156 -3.191406 L 4.046875 -3.570312 M 4.570312 -6.664062 L 0.636719 -6.664062 L 0.636719 -7.976562 L 4.570312 -7.976562 L 4.570312 -6.664062 "
           id="path411" />
      </symbol>
      <symbol
         overflow="visible"
         id="glyph0-6">
        <path
           style="stroke:none;"
           d="M 6.617188 -5.527344 C 7.726562 -4.738281 8.835938 -3.914062 9.949219 -3.058594 L 8.894531 -1.769531 C 7.734375 -2.773438 6.675781 -3.628906 5.71875 -4.339844 L 5.71875 1.347656 L 4.058594 1.347656 L 4.058594 -6.664062 L 0.285156 -6.664062 L 0.285156 -8.109375 L 10.183594 -8.109375 L 10.183594 -6.664062 L 5.71875 -6.664062 L 5.71875 -4.625 L 6.617188 -5.527344 "
           id="path414" />
      </symbol>
      <symbol
         overflow="visible"
         id="glyph0-7">
        <path
           style="stroke:none;"
           d="M 0.175781 -6.296875 L 2.519531 -6.296875 L 2.519531 -6.972656 L 0.511719 -6.972656 L 0.511719 -7.957031 L 2.519531 -7.957031 L 2.519531 -8.714844 L 3.851562 -8.714844 L 3.851562 -7.957031 L 5.757812 -7.957031 L 5.757812 -6.972656 L 3.851562 -6.972656 L 3.851562 -6.296875 L 6.066406 -6.296875 C 6.039062 -7.046875 6.023438 -7.859375 6.023438 -8.734375 L 7.378906 -8.734375 C 7.375 -7.859375 7.386719 -7.042969 7.414062 -6.296875 L 10.308594 -6.296875 L 10.308594 -5.210938 L 7.46875 -5.210938 C 7.527344 -4.359375 7.609375 -3.605469 7.714844 -2.945312 C 8.128906 -3.542969 8.488281 -4.179688 8.800781 -4.851562 L 9.949219 -4.296875 C 9.402344 -3.210938 8.78125 -2.214844 8.089844 -1.316406 C 8.316406 -0.621094 8.519531 -0.273438 8.699219 -0.273438 C 8.941406 -0.273438 9.082031 -0.875 9.121094 -2.085938 C 9.535156 -1.835938 9.953125 -1.625 10.371094 -1.460938 C 10.21875 0.367188 9.722656 1.285156 8.882812 1.285156 C 8.105469 1.285156 7.5 0.824219 7.066406 -0.109375 C 6.714844 0.265625 6.347656 0.621094 5.964844 0.957031 C 5.75 0.722656 5.507812 0.480469 5.242188 0.234375 L 4.148438 0.277344 L 4.148438 1.359375 L 2.859375 1.359375 L 2.859375 0.332031 L 0.429688 0.445312 L 0.285156 -0.785156 L 2.859375 -0.835938 L 2.859375 -1.5625 L 0.585938 -1.5625 L 0.585938 -2.710938 C 0.78125 -2.914062 0.996094 -3.203125 1.230469 -3.570312 L 0.398438 -3.570312 L 0.398438 -4.597656 L 1.808594 -4.597656 L 2.050781 -5.066406 L 3.535156 -5.066406 L 3.257812 -4.597656 L 5.832031 -4.597656 L 5.832031 -3.570312 L 2.625 -3.570312 C 2.398438 -3.222656 2.171875 -2.894531 1.945312 -2.585938 L 2.859375 -2.585938 L 2.859375 -3.183594 L 4.148438 -3.183594 L 4.148438 -2.585938 L 5.695312 -2.585938 L 5.695312 -1.5625 L 4.148438 -1.5625 L 4.148438 -0.882812 C 4.734375 -0.902344 5.261719 -0.925781 5.738281 -0.957031 C 5.726562 -0.871094 5.71875 -0.785156 5.710938 -0.703125 C 6.019531 -0.972656 6.3125 -1.257812 6.589844 -1.550781 C 6.371094 -2.488281 6.214844 -3.707031 6.121094 -5.210938 L 0.175781 -5.210938 L 0.175781 -6.296875 M 8.75 -8.714844 C 9.125 -8.304688 9.539062 -7.800781 9.988281 -7.199219 L 8.8125 -6.5 C 8.464844 -7.074219 8.09375 -7.601562 7.707031 -8.089844 L 8.75 -8.714844 "
           id="path417" />
      </symbol>
      <symbol
         overflow="visible"
         id="glyph0-8">
        <path
           style="stroke:none;"
           d="M 6.105469 1.234375 C 6.011719 0.757812 5.890625 0.289062 5.738281 -0.167969 C 6.179688 -0.144531 6.527344 -0.128906 6.773438 -0.128906 C 7.257812 -0.128906 7.554688 -0.242188 7.660156 -0.476562 C 7.769531 -0.707031 7.828125 -2.421875 7.839844 -5.621094 L 6.625 -5.621094 C 6.570312 -2.480469 5.667969 -0.125 3.914062 1.441406 C 3.601562 1.089844 3.226562 0.722656 2.785156 0.332031 C 4.371094 -0.933594 5.191406 -2.917969 5.25 -5.621094 L 3.566406 -5.621094 L 3.566406 -6.953125 L 5.265625 -6.953125 L 5.265625 -8.695312 L 6.660156 -8.695312 C 6.660156 -8.078125 6.65625 -7.5 6.648438 -6.953125 L 9.242188 -6.953125 L 9.199219 -4.566406 C 9.632812 -4.222656 10.019531 -3.898438 10.371094 -3.601562 L 10.050781 -1.929688 C 9.746094 -2.28125 9.453125 -2.601562 9.175781 -2.898438 L 9.128906 -0.59375 C 9.117188 -0.046875 8.988281 0.375 8.746094 0.667969 C 8.503906 0.960938 8.191406 1.125 7.808594 1.164062 C 7.425781 1.203125 6.859375 1.226562 6.105469 1.234375 M 0.195312 -5.988281 L 1.097656 -5.988281 L 1.097656 -8.644531 L 2.386719 -8.644531 L 2.386719 -5.988281 L 3.238281 -5.988281 L 3.238281 -4.757812 L 2.386719 -4.757812 L 2.386719 1.347656 L 1.097656 1.347656 L 1.097656 -4.757812 L 0.195312 -4.757812 L 0.195312 -5.988281 M 2.703125 -2.351562 C 3.074219 -3.183594 3.382812 -4.0625 3.636719 -4.984375 L 4.765625 -4.707031 C 4.503906 -3.765625 4.207031 -2.839844 3.863281 -1.921875 C 3.5 -2.078125 3.113281 -2.222656 2.703125 -2.351562 "
           id="path420" />
      </symbol>
      <symbol
         overflow="visible"
         id="glyph0-9">
        <path
           style="stroke:none;"
           d="M 6.679688 -8.777344 C 7.0625 -7.996094 7.414062 -7.222656 7.734375 -6.449219 L 6.546875 -5.929688 C 6.234375 -6.726562 5.898438 -7.527344 5.53125 -8.335938 L 6.679688 -8.777344 M 1.8125 -8.621094 C 2.3125 -7.96875 2.761719 -7.335938 3.167969 -6.726562 L 1.875 -5.9375 C 1.417969 -6.742188 1 -7.414062 0.625 -7.945312 L 1.8125 -8.621094 M 9.929688 -7.597656 C 9.578125 -5.199219 8.828125 -3.25 7.679688 -1.746094 C 8.449219 -1.03125 9.34375 -0.460938 10.371094 -0.0351562 C 10.019531 0.421875 9.699219 0.882812 9.40625 1.347656 C 8.359375 0.855469 7.4375 0.210938 6.644531 -0.59375 C 5.855469 0.164062 4.90625 0.839844 3.800781 1.441406 C 3.515625 0.96875 3.195312 0.53125 2.839844 0.128906 C 3.9375 -0.382812 4.882812 -1.007812 5.675781 -1.746094 C 4.648438 -3.203125 3.886719 -5.101562 3.402344 -7.433594 L 4.671875 -7.863281 C 5.101562 -5.820312 5.773438 -4.15625 6.691406 -2.871094 C 7.6875 -4.222656 8.324219 -5.902344 8.605469 -7.90625 L 9.929688 -7.597656 M 3.679688 -2.503906 C 3.746094 -1.84375 3.824219 -1.324219 3.914062 -0.949219 C 2.84375 -0.15625 2.109375 0.445312 1.710938 0.855469 L 0.972656 -0.160156 C 1.121094 -0.335938 1.203125 -0.613281 1.210938 -1 L 1.210938 -4.074219 L 0.203125 -4.074219 L 0.203125 -5.457031 L 2.601562 -5.457031 L 2.601562 -1.625 C 2.9375 -1.875 3.292969 -2.167969 3.679688 -2.503906 "
           id="path423" />
      </symbol>
      <symbol
         overflow="visible"
         id="glyph0-10">
        <path
           style="stroke:none;"
           d="M 1.761719 -8.777344 L 3.085938 -8.613281 C 2.976562 -8.050781 2.859375 -7.511719 2.730469 -6.992188 L 5.234375 -6.992188 L 5.234375 -5.765625 C 5.234375 -5.382812 5.132812 -4.757812 4.929688 -3.890625 C 4.722656 -3.027344 4.386719 -2.199219 3.910156 -1.410156 C 4.800781 -0.652344 6.1875 -0.273438 8.074219 -0.273438 C 8.894531 -0.273438 9.664062 -0.296875 10.371094 -0.355469 C 10.191406 0.046875 10.019531 0.554688 9.855469 1.164062 C 8.234375 1.140625 7.125 1.105469 6.539062 1.046875 C 5.949219 0.992188 5.347656 0.84375 4.730469 0.609375 C 4.113281 0.375 3.578125 0.0585938 3.128906 -0.339844 C 2.554688 0.332031 1.859375 0.921875 1.046875 1.429688 C 0.628906 0.871094 0.316406 0.492188 0.113281 0.292969 C 0.964844 -0.183594 1.671875 -0.746094 2.234375 -1.398438 C 1.914062 -1.90625 1.632812 -2.527344 1.394531 -3.257812 C 1.199219 -2.871094 0.992188 -2.503906 0.777344 -2.167969 C 0.570312 -2.707031 0.332031 -3.222656 0.0703125 -3.714844 C 0.816406 -4.945312 1.378906 -6.628906 1.761719 -8.777344 M 3.015625 -2.515625 C 3.539062 -3.449219 3.832031 -4.519531 3.894531 -5.722656 L 2.371094 -5.722656 C 2.308594 -5.511719 2.238281 -5.304688 2.167969 -5.097656 C 2.363281 -4.050781 2.644531 -3.1875 3.015625 -2.515625 M 6.066406 -8.675781 L 7.460938 -8.675781 L 7.460938 -0.609375 L 6.066406 -0.609375 L 6.066406 -8.675781 M 8.515625 -6.410156 C 9.113281 -5.671875 9.726562 -4.855469 10.347656 -3.960938 L 9.148438 -3.128906 C 8.664062 -3.972656 8.105469 -4.832031 7.46875 -5.710938 L 8.515625 -6.410156 "
           id="path426" />
      </symbol>
      <symbol
         overflow="visible"
         id="glyph0-11">
        <path
           style="stroke:none;"
           d="M 0.421875 0.824219 L 0.132812 -0.628906 L 1.351562 -0.90625 L 1.351562 -3.425781 L 0.367188 -3.425781 L 0.367188 -4.699219 L 1.351562 -4.699219 L 1.351562 -6.851562 L 0.328125 -6.851562 L 0.328125 -8.140625 L 3.6875 -8.140625 L 3.6875 -6.851562 L 2.664062 -6.851562 L 2.664062 -4.699219 L 3.617188 -4.699219 L 3.617188 -3.425781 L 2.664062 -3.425781 L 2.664062 -1.238281 C 3.027344 -1.335938 3.382812 -1.441406 3.730469 -1.542969 C 3.703125 -1.058594 3.699219 -0.589844 3.71875 -0.136719 L 6.261719 -0.136719 L 6.261719 -1.03125 L 3.925781 -1.03125 L 3.925781 -2.199219 L 6.261719 -2.199219 L 6.261719 -2.9375 L 3.976562 -2.9375 L 3.976562 -8.253906 L 9.855469 -8.253906 L 9.855469 -2.9375 L 7.570312 -2.9375 L 7.570312 -2.199219 L 9.90625 -2.199219 L 9.90625 -1.03125 L 7.570312 -1.03125 L 7.570312 -0.136719 L 10.359375 -0.136719 L 10.359375 1.03125 L 3.328125 1.03125 L 3.328125 -0.0507812 C 2.429688 0.195312 1.460938 0.488281 0.421875 0.824219 M 8.574219 -7.105469 L 7.570312 -7.105469 L 7.570312 -6.132812 L 8.574219 -6.132812 L 8.574219 -7.105469 M 5.257812 -6.132812 L 6.261719 -6.132812 L 6.261719 -7.105469 L 5.257812 -7.105469 L 5.257812 -6.132812 M 8.574219 -4.082031 L 8.574219 -5.066406 L 7.570312 -5.066406 L 7.570312 -4.082031 L 8.574219 -4.082031 M 5.257812 -4.082031 L 6.261719 -4.082031 L 6.261719 -5.066406 L 5.257812 -5.066406 L 5.257812 -4.082031 "
           id="path429" />
      </symbol>
      <symbol
         overflow="visible"
         id="glyph0-12">
        <path
           style="stroke:none;"
           d="M 0.203125 -5.710938 L 1.566406 -5.710938 L 1.566406 -6.839844 C 1.164062 -6.796875 0.753906 -6.765625 0.347656 -6.738281 C 0.300781 -7.253906 0.242188 -7.691406 0.164062 -8.050781 C 1.242188 -8.101562 2.460938 -8.246094 3.8125 -8.480469 L 4.128906 -7.199219 C 3.714844 -7.125 3.296875 -7.058594 2.878906 -7 L 2.878906 -5.710938 L 4.046875 -5.710938 L 4.046875 -4.492188 L 2.878906 -4.492188 L 2.878906 -3.367188 L 3.167969 -3.652344 C 3.507812 -3.367188 3.949219 -2.964844 4.5 -2.445312 L 3.585938 -1.5625 C 3.34375 -1.863281 3.109375 -2.140625 2.878906 -2.402344 L 2.878906 1.417969 L 1.566406 1.417969 L 1.566406 -2.53125 C 1.316406 -1.761719 1.003906 -1.03125 0.636719 -0.332031 C 0.507812 -0.917969 0.34375 -1.492188 0.144531 -2.054688 C 0.59375 -2.679688 1.003906 -3.492188 1.371094 -4.492188 L 0.203125 -4.492188 L 0.203125 -5.710938 M 4.40625 -8.304688 L 9.746094 -8.304688 L 9.746094 -4.863281 L 4.40625 -4.863281 L 4.40625 -8.304688 M 8.382812 -7.117188 L 5.769531 -7.117188 L 5.769531 -6.050781 L 8.382812 -6.050781 L 8.382812 -7.117188 M 3.667969 -0.0859375 L 6.375 -0.0859375 L 6.375 -0.96875 L 4.363281 -0.96875 L 4.363281 -2.117188 L 6.375 -2.117188 L 6.375 -2.964844 L 4.179688 -2.964844 L 4.179688 -4.15625 L 10.082031 -4.15625 L 10.082031 -2.964844 L 7.777344 -2.964844 L 7.777344 -2.117188 L 9.804688 -2.117188 L 9.804688 -0.96875 L 7.777344 -0.96875 L 7.777344 -0.0859375 L 10.328125 -0.0859375 L 10.328125 1.101562 L 3.667969 1.101562 L 3.667969 -0.0859375 "
           id="path432" />
      </symbol>
      <symbol
         overflow="visible"
         id="glyph0-13">
        <path
           style="stroke:none;"
           d="M 2.355469 -4.082031 C 2.355469 -1.519531 2.007812 0.3125 1.3125 1.410156 L 0.152344 0.425781 C 0.734375 -0.578125 1.019531 -2.140625 1.003906 -4.269531 L 1.003906 -7.78125 L 4.78125 -7.78125 C 4.683594 -8.03125 4.597656 -8.234375 4.527344 -8.386719 L 6.199219 -8.777344 L 6.597656 -7.78125 L 10.207031 -7.78125 L 10.207031 -6.523438 L 2.355469 -6.523438 L 2.355469 -4.082031 M 9.664062 -5.886719 L 9.664062 -4.625 L 7.335938 -3.019531 L 10.207031 -3.019531 L 10.207031 -1.878906 L 9.394531 -0.148438 L 8.136719 -0.496094 L 8.761719 -1.796875 L 7.109375 -1.796875 L 7.109375 -0.160156 C 7.109375 0.277344 7.011719 0.609375 6.816406 0.835938 C 6.621094 1.058594 6.367188 1.195312 6.058594 1.242188 C 5.75 1.289062 5.035156 1.320312 3.914062 1.335938 C 3.839844 0.851562 3.738281 0.402344 3.617188 -0.015625 C 4.363281 0.0195312 4.839844 0.0351562 5.050781 0.0351562 C 5.460938 0.0351562 5.664062 -0.199219 5.65625 -0.671875 L 5.65625 -1.796875 L 2.625 -1.796875 L 2.625 -3.019531 L 5.230469 -3.019531 C 4.707031 -3.375 4.195312 -3.699219 3.6875 -3.992188 L 4.394531 -4.667969 L 3.003906 -4.667969 L 3.003906 -5.886719 L 9.664062 -5.886719 M 7.746094 -4.667969 L 4.8125 -4.667969 L 6.277344 -3.679688 L 7.746094 -4.667969 "
           id="path435" />
      </symbol>
      <symbol
         overflow="visible"
         id="glyph1-0">
        <path
           style="stroke:none;"
           d="M 6.253906 -6.222656 C 7.097656 -5.367188 7.914062 -4.488281 8.703125 -3.578125 L 8.089844 -3.0625 C 7.867188 -3.335938 7.644531 -3.609375 7.421875 -3.878906 C 6.875 -3.855469 6.328125 -3.832031 5.789062 -3.808594 L 5.789062 -0.277344 C 5.789062 0.0976562 5.964844 0.285156 6.316406 0.285156 L 7.316406 0.285156 C 7.714844 0.285156 7.933594 0.132812 7.984375 -0.179688 C 8.023438 -0.496094 8.054688 -0.929688 8.078125 -1.480469 C 8.289062 -1.398438 8.542969 -1.3125 8.835938 -1.226562 C 8.789062 -0.679688 8.738281 -0.25 8.6875 0.0664062 C 8.585938 0.640625 8.175781 0.925781 7.457031 0.925781 L 6.148438 0.925781 C 5.433594 0.925781 5.078125 0.566406 5.078125 -0.152344 L 5.078125 -3.773438 C 4.574219 -3.75 4.070312 -3.726562 3.566406 -3.703125 C 3.535156 -2.355469 3.328125 -1.367188 2.949219 -0.742188 C 2.453125 0.152344 1.652344 0.789062 0.542969 1.164062 C 0.429688 0.96875 0.28125 0.75 0.105469 0.503906 C 1.175781 0.117188 1.898438 -0.402344 2.273438 -1.066406 C 2.636719 -1.636719 2.832031 -2.503906 2.871094 -3.664062 C 2.488281 -3.644531 2.105469 -3.628906 1.722656 -3.605469 C 1.40625 -3.585938 1.101562 -3.542969 0.808594 -3.464844 L 0.507812 -4.21875 C 0.792969 -4.328125 1.039062 -4.476562 1.246094 -4.652344 C 2.164062 -5.453125 3.039062 -6.425781 3.875 -7.574219 L 4.53125 -7.171875 C 3.835938 -6.289062 2.957031 -5.332031 1.886719 -4.308594 C 3.507812 -4.355469 5.179688 -4.421875 6.898438 -4.496094 C 6.515625 -4.945312 6.128906 -5.375 5.742188 -5.792969 L 6.253906 -6.222656 "
           id="path438" />
      </symbol>
      <symbol
         overflow="visible"
         id="glyph1-1">
        <path
           style="stroke:none;"
           d="M 2.6875 -3.21875 L 5.460938 -3.21875 L 5.460938 -5.484375 L 4.082031 -5.484375 C 3.824219 -4.898438 3.550781 -4.359375 3.265625 -3.878906 C 3.105469 -4.023438 2.90625 -4.167969 2.679688 -4.316406 C 3.226562 -5.1875 3.699219 -6.25 4.082031 -7.496094 L 4.785156 -7.304688 C 4.644531 -6.886719 4.5 -6.492188 4.347656 -6.117188 L 8.429688 -6.117188 L 8.429688 -5.484375 L 6.199219 -5.484375 L 6.199219 -3.21875 L 8.816406 -3.21875 L 8.816406 -2.585938 L 6.199219 -2.585938 L 6.199219 1.128906 L 5.460938 1.128906 L 5.460938 -2.585938 L 2.6875 -2.585938 L 2.6875 -3.21875 M 3.441406 -1.445312 C 3.5 -1.144531 3.558594 -0.890625 3.617188 -0.671875 C 3.0625 -0.285156 2.535156 0.113281 2.027344 0.523438 C 1.847656 0.675781 1.683594 0.847656 1.535156 1.039062 L 0.949219 0.453125 C 1.175781 0.230469 1.292969 -0.0742188 1.292969 -0.460938 L 1.292969 -3.789062 L 0.113281 -3.789062 L 0.113281 -4.457031 L 2.003906 -4.457031 L 2.003906 -0.355469 C 2.46875 -0.671875 2.949219 -1.035156 3.441406 -1.445312 M 1.035156 -7.339844 C 1.671875 -6.683594 2.136719 -6.195312 2.425781 -5.878906 L 1.808594 -5.363281 C 1.441406 -5.847656 1.003906 -6.351562 0.5 -6.871094 L 1.035156 -7.339844 "
           id="path441" />
      </symbol>
      <symbol
         overflow="visible"
         id="glyph1-2">
        <path
           style="stroke:none;"
           d="M 0.238281 0.0390625 C 0.523438 0.0117188 0.808594 -0.0195312 1.097656 -0.0507812 L 1.097656 -3.394531 L 0.132812 -3.394531 L 0.132812 -3.921875 L 8.835938 -3.921875 L 8.835938 -3.394531 L 4.25 -3.394531 L 4.25 -0.464844 C 4.53125 -0.503906 4.8125 -0.550781 5.09375 -0.59375 C 5.089844 -0.488281 5.089844 -0.300781 5.101562 -0.03125 C 4.828125 0.0078125 4.542969 0.046875 4.25 0.0859375 L 4.25 1.207031 L 3.652344 1.207031 L 3.652344 0.175781 C 2.648438 0.320312 1.5625 0.480469 0.394531 0.664062 L 0.238281 0.0390625 M 1.457031 -7.101562 L 7.535156 -7.101562 L 7.535156 -4.28125 L 6.921875 -4.28125 L 6.921875 -4.484375 L 2.074219 -4.484375 L 2.074219 -4.28125 L 1.457031 -4.28125 L 1.457031 -7.101562 M 4.691406 -2.261719 L 4.691406 -2.769531 L 8.175781 -2.769531 L 8.175781 -2.261719 C 7.878906 -1.546875 7.488281 -0.921875 7 -0.390625 C 7.5 -0.0273438 8.121094 0.253906 8.863281 0.445312 C 8.710938 0.664062 8.578125 0.871094 8.464844 1.058594 C 7.710938 0.808594 7.074219 0.472656 6.554688 0.046875 C 6.054688 0.5 5.46875 0.867188 4.796875 1.15625 C 4.695312 0.980469 4.5625 0.792969 4.390625 0.601562 C 5.054688 0.347656 5.628906 0.0234375 6.109375 -0.375 C 5.621094 -0.894531 5.273438 -1.527344 5.0625 -2.261719 L 4.691406 -2.261719 M 2.074219 -4.992188 L 6.921875 -4.992188 L 6.921875 -5.554688 L 2.074219 -5.554688 L 2.074219 -4.992188 M 6.921875 -6.589844 L 2.074219 -6.589844 L 2.074219 -6.03125 L 6.921875 -6.03125 L 6.921875 -6.589844 M 7.507812 -2.261719 L 5.65625 -2.261719 C 5.839844 -1.6875 6.136719 -1.191406 6.546875 -0.78125 C 6.953125 -1.207031 7.273438 -1.703125 7.507812 -2.261719 M 3.652344 -0.378906 L 3.652344 -0.96875 L 1.695312 -0.96875 L 1.695312 -0.121094 C 2.355469 -0.203125 3.007812 -0.285156 3.652344 -0.378906 M 1.695312 -2.691406 L 3.652344 -2.691406 L 3.652344 -3.394531 L 1.695312 -3.394531 L 1.695312 -2.691406 M 1.695312 -1.480469 L 3.652344 -1.480469 L 3.652344 -2.183594 L 1.695312 -2.183594 L 1.695312 -1.480469 "
           id="path444" />
      </symbol>
      <symbol
         overflow="visible"
         id="glyph1-3">
        <path
           style="stroke:none;"
           d="M 4.339844 -6.003906 L 4.339844 -4.449219 L 8.773438 -4.449219 L 8.773438 -3.796875 L 7.015625 -3.796875 L 7.015625 -0.117188 L 6.324219 -0.117188 L 6.324219 -3.796875 L 4.335938 -3.796875 C 4.289062 -2.238281 3.886719 -1.015625 3.125 -0.128906 C 2.957031 -0.273438 2.765625 -0.429688 2.554688 -0.59375 C 3.292969 -1.445312 3.664062 -2.613281 3.664062 -4.097656 L 3.664062 -6.617188 C 5.089844 -6.710938 6.617188 -6.894531 8.238281 -7.164062 L 8.394531 -6.511719 C 6.910156 -6.285156 5.558594 -6.117188 4.339844 -6.003906 M 3.792969 0.207031 L 6.367188 0.25 L 8.871094 0.164062 C 8.773438 0.394531 8.675781 0.628906 8.589844 0.855469 L 6.148438 0.875 L 3.722656 0.839844 C 2.734375 0.820312 2.007812 0.488281 1.546875 -0.164062 C 1.382812 -0.0351562 1.042969 0.332031 0.527344 0.945312 L 0.15625 0.207031 C 0.609375 -0.207031 0.96875 -0.527344 1.238281 -0.753906 L 1.238281 -3.773438 L 0.21875 -3.773438 L 0.21875 -4.40625 L 1.914062 -4.40625 L 1.914062 -0.59375 C 2.335938 -0.0859375 2.960938 0.179688 3.792969 0.207031 M 1.117188 -7.417969 C 1.53125 -6.925781 1.972656 -6.371094 2.441406 -5.757812 L 1.828125 -5.308594 C 1.324219 -6.050781 0.910156 -6.628906 0.578125 -7.03125 L 1.117188 -7.417969 "
           id="path447" />
      </symbol>
      <symbol
         overflow="visible"
         id="glyph1-4">
        <path
           style="stroke:none;"
           d="M 0.183594 0.558594 C 2.285156 -0.1875 3.535156 -1.261719 3.9375 -2.664062 L 0.359375 -2.664062 L 0.359375 -3.332031 L 4.066406 -3.332031 C 4.078125 -3.457031 4.082031 -4.019531 4.082031 -5.011719 L 0.878906 -5.011719 L 0.878906 -5.679688 L 2.984375 -5.679688 C 2.484375 -6.230469 2.054688 -6.675781 1.695312 -7.011719 L 2.203125 -7.46875 C 2.707031 -7.019531 3.167969 -6.589844 3.582031 -6.179688 L 3.019531 -5.679688 L 5.117188 -5.679688 C 5.566406 -6.320312 5.96875 -6.917969 6.316406 -7.480469 L 7.042969 -7.074219 C 6.640625 -6.5625 6.269531 -6.09375 5.929688 -5.679688 L 8.148438 -5.679688 L 8.148438 -5.011719 L 4.832031 -5.011719 C 4.832031 -4.148438 4.824219 -3.59375 4.816406 -3.332031 L 8.667969 -3.332031 L 8.667969 -2.664062 L 4.941406 -2.664062 C 5.628906 -1.195312 6.921875 -0.183594 8.828125 0.363281 C 8.585938 0.609375 8.371094 0.847656 8.175781 1.074219 C 6.375 0.375 5.148438 -0.683594 4.5 -2.09375 C 4.023438 -0.726562 2.753906 0.367188 0.695312 1.191406 C 0.542969 0.992188 0.375 0.78125 0.183594 0.558594 "
           id="path450" />
      </symbol>
      <symbol
         overflow="visible"
         id="glyph1-5">
        <path
           style="stroke:none;"
           d="M 1.976562 -4.570312 L 5.007812 -4.570312 L 5.007812 -5.863281 L 5.65625 -5.863281 L 5.65625 -4.570312 L 7.21875 -4.570312 L 7.21875 -3.9375 L 5.65625 -3.9375 L 5.65625 -0.609375 C 5.65625 0.03125 5.328125 0.355469 4.664062 0.355469 C 4.425781 0.355469 4.039062 0.351562 3.511719 0.339844 C 3.476562 0.0703125 3.441406 -0.15625 3.40625 -0.339844 C 3.847656 -0.308594 4.199219 -0.292969 4.460938 -0.285156 C 4.816406 -0.285156 5 -0.472656 5.007812 -0.847656 L 5.007812 -3.203125 C 4.230469 -2.164062 3.277344 -1.242188 2.152344 -0.425781 C 2.019531 -0.601562 1.859375 -0.777344 1.675781 -0.953125 C 2.9375 -1.824219 3.980469 -2.820312 4.800781 -3.9375 L 1.976562 -3.9375 L 1.976562 -4.570312 M 3.355469 -6.292969 L 3.355469 -6.953125 L 8.449219 -6.953125 L 8.449219 -0.164062 C 8.449219 0.683594 8.058594 1.109375 7.273438 1.109375 C 6.882812 1.109375 6.410156 1.105469 5.859375 1.09375 C 5.835938 0.917969 5.789062 0.679688 5.71875 0.382812 C 6.203125 0.417969 6.664062 0.433594 7.105469 0.433594 C 7.542969 0.433594 7.765625 0.222656 7.765625 -0.199219 L 7.765625 -6.292969 L 3.355469 -6.292969 M 0.589844 -5.808594 L 1.273438 -5.808594 L 1.273438 1.109375 L 0.589844 1.109375 L 0.589844 -5.808594 M 1.046875 -7.066406 L 1.546875 -7.503906 C 2.039062 -7.046875 2.480469 -6.605469 2.878906 -6.171875 L 2.308594 -5.679688 C 1.902344 -6.164062 1.480469 -6.625 1.046875 -7.066406 "
           id="path453" />
      </symbol>
      <symbol
         overflow="visible"
         id="glyph1-6">
        <path
           style="stroke:none;"
           d="M 0.5 -6.019531 L 1.386719 -6.019531 C 1.601562 -6.550781 1.78125 -7.039062 1.921875 -7.480469 L 2.660156 -7.269531 C 2.476562 -6.820312 2.296875 -6.40625 2.125 -6.019531 L 3.882812 -6.019531 L 3.882812 0.96875 L 3.179688 0.96875 L 3.179688 0.285156 L 1.203125 0.285156 L 1.203125 1.03125 L 0.5 1.03125 L 0.5 -6.019531 M 4.011719 -4.21875 C 4.5625 -5.09375 5.027344 -6.179688 5.410156 -7.480469 L 6.148438 -7.292969 C 6 -6.851562 5.847656 -6.4375 5.691406 -6.046875 L 8.519531 -6.046875 C 8.449219 -3.039062 8.390625 -1.144531 8.34375 -0.363281 C 8.304688 0.554688 7.820312 1.015625 6.894531 1.015625 C 6.363281 1.015625 5.820312 0.996094 5.269531 0.960938 C 5.234375 0.667969 5.1875 0.410156 5.128906 0.179688 L 5.15625 0.179688 C 5.738281 0.261719 6.273438 0.304688 6.761719 0.304688 C 7.292969 0.304688 7.582031 0.0234375 7.625 -0.539062 C 7.6875 -1.410156 7.734375 -3.027344 7.765625 -5.386719 L 5.410156 -5.386719 C 5.15625 -4.824219 4.890625 -4.324219 4.621094 -3.894531 C 4.460938 -4.003906 4.257812 -4.113281 4.011719 -4.21875 M 1.203125 -0.375 L 3.179688 -0.375 L 3.179688 -2.59375 L 1.203125 -2.59375 L 1.203125 -0.375 M 3.179688 -5.363281 L 1.203125 -5.363281 L 1.203125 -3.226562 L 3.179688 -3.226562 L 3.179688 -5.363281 M 4.785156 -3.625 L 5.320312 -4.019531 C 5.972656 -3.253906 6.492188 -2.585938 6.875 -2.023438 L 6.226562 -1.566406 C 5.8125 -2.246094 5.332031 -2.929688 4.785156 -3.625 "
           id="path456" />
      </symbol>
      <symbol
         overflow="visible"
         id="glyph1-7">
        <path
           style="stroke:none;"
           d="M 4.058594 -3.050781 L 5.726562 -3.050781 L 5.726562 -7.46875 L 6.429688 -7.46875 L 6.429688 -5.660156 L 8.871094 -5.660156 L 8.871094 -4.992188 L 6.429688 -4.992188 L 6.429688 -3.050781 L 8.378906 -3.050781 L 8.378906 1.15625 L 7.710938 1.15625 L 7.710938 0.636719 L 4.726562 0.636719 L 4.726562 1.15625 L 4.058594 1.15625 L 4.058594 -3.050781 M 7.710938 -2.4375 L 4.726562 -2.4375 L 4.726562 0.0234375 L 7.710938 0.0234375 L 7.710938 -2.4375 M 0.132812 -0.398438 C 0.746094 -0.5 1.375 -0.613281 2.015625 -0.738281 C 2.414062 -2.144531 2.707031 -3.402344 2.890625 -4.519531 L 3.601562 -4.351562 C 3.328125 -3.214844 3.03125 -2.054688 2.703125 -0.871094 C 3.050781 -0.933594 3.402344 -1.007812 3.757812 -1.085938 C 3.769531 -0.828125 3.789062 -0.613281 3.820312 -0.445312 C 2.570312 -0.191406 1.394531 0.0507812 0.296875 0.292969 L 0.132812 -0.398438 M 0.253906 -5.609375 L 3.875 -5.609375 L 3.875 -4.992188 L 0.253906 -4.992188 L 0.253906 -5.609375 M 0.554688 -4.246094 L 1.160156 -4.40625 C 1.417969 -3.503906 1.65625 -2.558594 1.878906 -1.566406 L 1.230469 -1.390625 C 1.035156 -2.359375 0.8125 -3.308594 0.554688 -4.246094 M 1.230469 -7.285156 L 1.851562 -7.558594 C 2.085938 -7.132812 2.328125 -6.648438 2.582031 -6.109375 L 1.921875 -5.808594 C 1.71875 -6.320312 1.488281 -6.8125 1.230469 -7.285156 "
           id="path459" />
      </symbol>
      <symbol
         overflow="visible"
         id="glyph1-8">
        <path
           style="stroke:none;"
           d="M 1.265625 -4.746094 L 4.023438 -4.746094 L 4.023438 -7.503906 L 4.761719 -7.503906 L 4.761719 -6.453125 L 8.6875 -6.453125 L 8.6875 -5.820312 L 4.761719 -5.820312 L 4.761719 -4.746094 L 7.871094 -4.746094 L 7.871094 -1.390625 L 7.148438 -1.390625 L 7.148438 -1.761719 L 1.984375 -1.761719 L 1.984375 -1.390625 L 1.265625 -1.390625 L 1.265625 -4.746094 M 7.148438 -4.113281 L 1.984375 -4.113281 L 1.984375 -2.394531 L 7.148438 -2.394531 L 7.148438 -4.113281 M 7.625 -1.191406 C 8.089844 -0.484375 8.464844 0.15625 8.746094 0.726562 L 8.078125 1.085938 C 7.789062 0.488281 7.433594 -0.164062 7.015625 -0.875 L 7.625 -1.191406 M 1.921875 -0.777344 C 1.480469 0.0234375 1.085938 0.65625 0.746094 1.109375 L 0.140625 0.679688 C 0.519531 0.179688 0.910156 -0.425781 1.308594 -1.128906 L 1.921875 -0.777344 M 3.390625 -1.164062 C 3.65625 -0.574219 3.894531 0.0507812 4.09375 0.707031 L 3.382812 0.953125 C 3.203125 0.316406 2.992188 -0.3125 2.757812 -0.933594 L 3.390625 -1.164062 M 5.488281 -1.226562 C 5.769531 -0.644531 6.023438 -0.0390625 6.253906 0.59375 L 5.558594 0.863281 C 5.398438 0.339844 5.160156 -0.277344 4.847656 -0.980469 L 5.488281 -1.226562 "
           id="path462" />
      </symbol>
      <symbol
         overflow="visible"
         id="glyph1-9">
        <path
           style="stroke:none;"
           d="M 1.324219 -5.492188 L 3.183594 -5.492188 C 3.328125 -6.105469 3.445312 -6.773438 3.546875 -7.496094 L 4.292969 -7.398438 C 4.195312 -6.738281 4.074219 -6.101562 3.929688 -5.492188 L 8.78125 -5.492188 L 8.78125 -4.84375 L 3.761719 -4.84375 C 3.65625 -4.457031 3.542969 -4.085938 3.417969 -3.726562 L 7.773438 -3.726562 L 7.773438 -3.121094 C 7.386719 -2.164062 6.785156 -1.339844 5.96875 -0.640625 C 6.789062 -0.144531 7.75 0.207031 8.84375 0.410156 C 8.582031 0.699219 8.375 0.945312 8.230469 1.144531 C 7.292969 0.835938 6.351562 0.382812 5.402344 -0.214844 C 4.640625 0.285156 3.550781 0.757812 2.132812 1.207031 C 1.972656 0.976562 1.796875 0.757812 1.605469 0.558594 C 3.046875 0.183594 4.125 -0.214844 4.835938 -0.632812 C 4.066406 -1.292969 3.515625 -2.121094 3.1875 -3.121094 C 2.546875 -1.519531 1.675781 -0.203125 0.570312 0.828125 C 0.414062 0.609375 0.257812 0.410156 0.105469 0.234375 C 1.425781 -0.957031 2.394531 -2.648438 3.015625 -4.84375 L 0.578125 -4.84375 L 0.578125 -5.503906 C 0.820312 -6.058594 1.039062 -6.617188 1.238281 -7.179688 L 1.949219 -6.988281 C 1.746094 -6.472656 1.535156 -5.976562 1.324219 -5.492188 M 7 -3.121094 L 3.824219 -3.121094 C 4.089844 -2.3125 4.609375 -1.613281 5.390625 -1.027344 C 6.148438 -1.652344 6.6875 -2.351562 7 -3.121094 M 5.648438 -6.890625 L 6.035156 -7.382812 C 6.605469 -7.019531 7.15625 -6.640625 7.683594 -6.25 L 7.210938 -5.679688 C 6.699219 -6.109375 6.179688 -6.515625 5.648438 -6.890625 "
           id="path465" />
      </symbol>
      <symbol
         overflow="visible"
         id="glyph1-10">
        <path
           style="stroke:none;"
           d="M 2.539062 -3.597656 L 5.164062 -3.597656 C 5.175781 -3.71875 5.183594 -4.207031 5.183594 -5.0625 L 2.863281 -5.0625 L 2.863281 -5.679688 L 5.875 -5.679688 C 6.449219 -6.390625 6.863281 -6.992188 7.113281 -7.480469 L 7.816406 -7.046875 C 7.578125 -6.746094 7.191406 -6.289062 6.65625 -5.679688 L 8.484375 -5.679688 L 8.484375 -5.0625 L 5.867188 -5.0625 C 5.867188 -4.332031 5.863281 -3.84375 5.859375 -3.597656 L 8.695312 -3.597656 L 8.695312 -2.980469 L 5.796875 -2.980469 C 5.785156 -2.832031 5.761719 -2.683594 5.726562 -2.542969 C 6.652344 -1.933594 7.546875 -1.3125 8.421875 -0.671875 L 7.957031 -0.0742188 C 7.058594 -0.78125 6.238281 -1.394531 5.507812 -1.910156 C 5.109375 -1.089844 4.324219 -0.441406 3.152344 0.0390625 C 2.996094 -0.164062 2.835938 -0.347656 2.679688 -0.515625 C 4.183594 -1.109375 4.992188 -1.933594 5.101562 -2.980469 L 2.539062 -2.980469 L 2.539062 -3.597656 M 3.804688 0.355469 C 5.097656 0.378906 6.785156 0.367188 8.871094 0.320312 C 8.773438 0.554688 8.675781 0.78125 8.582031 0.996094 C 6.496094 1.015625 4.886719 1.011719 3.75 0.988281 C 2.691406 0.960938 1.949219 0.621094 1.527344 -0.03125 C 1.359375 0.101562 1.015625 0.480469 0.5 1.09375 L 0.121094 0.347656 C 0.484375 0.0195312 0.847656 -0.296875 1.210938 -0.609375 L 1.210938 -3.675781 L 0.210938 -3.675781 L 0.210938 -4.316406 L 1.898438 -4.316406 L 1.898438 -0.46875 C 2.3125 0.0429688 2.945312 0.320312 3.804688 0.355469 M 1.027344 -7.363281 C 1.460938 -6.855469 1.910156 -6.285156 2.378906 -5.652344 L 1.746094 -5.230469 C 1.367188 -5.8125 0.945312 -6.394531 0.484375 -6.96875 L 1.027344 -7.363281 M 3.496094 -7.066406 L 4.023438 -7.460938 C 4.320312 -7.140625 4.664062 -6.738281 5.050781 -6.257812 L 4.445312 -5.835938 C 4.09375 -6.332031 3.777344 -6.742188 3.496094 -7.066406 "
           id="path468" />
      </symbol>
      <symbol
         overflow="visible"
         id="glyph1-11">
        <path
           style="stroke:none;"
           d="M 4.585938 -6.398438 L 8.464844 -6.398438 L 8.464844 0.933594 L 7.765625 0.933594 L 7.765625 0.0820312 L 5.289062 0.0820312 L 5.289062 0.933594 L 4.585938 0.933594 L 4.585938 -6.398438 M 7.765625 -5.75 L 5.289062 -5.75 L 5.289062 -0.550781 L 7.765625 -0.550781 L 7.765625 -5.75 M 0.105469 -1.261719 C 0.773438 -2.144531 1.300781 -3.125 1.695312 -4.210938 L 0.15625 -4.210938 L 0.15625 -4.808594 L 1.835938 -4.808594 L 1.835938 -6.195312 C 1.378906 -6.125 0.917969 -6.0625 0.449219 -6.003906 C 0.394531 -6.195312 0.332031 -6.398438 0.253906 -6.609375 C 1.472656 -6.742188 2.652344 -6.941406 3.792969 -7.207031 L 3.996094 -6.589844 C 3.511719 -6.492188 3.011719 -6.398438 2.503906 -6.3125 L 2.503906 -4.808594 L 4.144531 -4.808594 L 4.144531 -4.210938 L 2.503906 -4.210938 L 2.503906 -3.078125 L 2.820312 -3.394531 C 3.28125 -2.996094 3.734375 -2.574219 4.179688 -2.128906 L 3.679688 -1.621094 C 3.328125 -2.023438 2.9375 -2.4375 2.503906 -2.859375 L 2.503906 1.226562 L 1.835938 1.226562 L 1.835938 -2.992188 C 1.492188 -2.125 1.027344 -1.296875 0.4375 -0.503906 C 0.347656 -0.734375 0.234375 -0.984375 0.105469 -1.261719 "
           id="path471" />
      </symbol>
      <symbol
         overflow="visible"
         id="glyph1-12">
        <path
           style="stroke:none;"
           d="M 2.53125 0.515625 C 3.671875 0.347656 4.601562 0.0742188 5.316406 -0.3125 C 4.769531 -0.558594 4.183594 -0.816406 3.558594 -1.085938 C 3.808594 -1.410156 4.039062 -1.734375 4.253906 -2.058594 L 2.808594 -2.058594 L 2.808594 -2.648438 L 4.625 -2.648438 C 4.8125 -2.964844 4.980469 -3.28125 5.136719 -3.597656 L 5.789062 -3.324219 C 5.648438 -3.089844 5.507812 -2.867188 5.371094 -2.648438 L 8.746094 -2.648438 L 8.746094 -2.058594 L 7.59375 -2.058594 C 7.363281 -1.417969 7.019531 -0.875 6.566406 -0.429688 C 7.3125 -0.121094 8.035156 0.1875 8.738281 0.496094 L 8.351562 1.144531 C 7.695312 0.800781 6.917969 0.417969 6.023438 0.00390625 C 5.242188 0.535156 4.1875 0.929688 2.863281 1.179688 C 2.78125 0.988281 2.671875 0.765625 2.53125 0.515625 M 0.140625 -2.761719 C 0.554688 -2.875 0.960938 -2.992188 1.351562 -3.109375 L 1.351562 -5.117188 L 0.246094 -5.117188 L 0.246094 -5.75 L 1.351562 -5.75 L 1.351562 -7.390625 L 2.003906 -7.390625 L 2.003906 -5.75 L 3.011719 -5.75 L 3.011719 -5.117188 L 2.003906 -5.117188 L 2.003906 -3.3125 C 2.277344 -3.398438 2.550781 -3.488281 2.820312 -3.578125 C 2.824219 -3.316406 2.839844 -3.085938 2.871094 -2.894531 C 2.570312 -2.796875 2.28125 -2.703125 2.003906 -2.609375 L 2.003906 0.101562 C 2.003906 0.734375 1.71875 1.050781 1.152344 1.058594 C 0.933594 1.0625 0.660156 1.0625 0.324219 1.050781 C 0.304688 0.808594 0.269531 0.566406 0.21875 0.320312 C 0.570312 0.355469 0.820312 0.375 0.964844 0.375 C 1.222656 0.375 1.351562 0.21875 1.351562 -0.09375 L 1.351562 -2.394531 C 0.953125 -2.257812 0.578125 -2.128906 0.226562 -2.007812 L 0.140625 -2.761719 M 2.835938 -4.316406 L 6.257812 -4.316406 C 6.628906 -4.832031 6.957031 -5.3125 7.246094 -5.765625 L 7.90625 -5.40625 C 7.601562 -5.042969 7.292969 -4.675781 6.976562 -4.316406 L 8.808594 -4.316406 L 8.808594 -3.726562 L 2.835938 -3.726562 L 2.835938 -4.316406 M 3.179688 -6.453125 L 5.660156 -6.453125 C 5.523438 -6.71875 5.378906 -6.980469 5.226562 -7.242188 L 5.8125 -7.515625 C 6 -7.199219 6.179688 -6.878906 6.351562 -6.554688 L 6.125 -6.453125 L 8.597656 -6.453125 L 8.597656 -5.863281 L 3.179688 -5.863281 L 3.179688 -6.453125 M 4.46875 -1.277344 C 4.957031 -1.085938 5.4375 -0.890625 5.90625 -0.699219 C 6.363281 -1.070312 6.691406 -1.523438 6.886719 -2.058594 L 4.992188 -2.058594 C 4.816406 -1.789062 4.640625 -1.527344 4.46875 -1.277344 M 3.96875 -5.414062 L 4.480469 -5.757812 C 4.753906 -5.4375 5.019531 -5.097656 5.277344 -4.738281 L 4.714844 -4.359375 C 4.496094 -4.722656 4.246094 -5.074219 3.96875 -5.414062 "
           id="path474" />
      </symbol>
      <symbol
         overflow="visible"
         id="glyph1-13">
        <path
           style="stroke:none;"
           d="M 3.152344 -3.738281 C 3.902344 -5.039062 4.445312 -6.292969 4.777344 -7.503906 L 5.488281 -7.304688 C 5.300781 -6.761719 5.105469 -6.246094 4.902344 -5.75 L 8.730469 -5.75 L 8.730469 -5.097656 L 7.699219 -5.097656 C 7.609375 -3.402344 7.175781 -2.023438 6.394531 -0.957031 C 6.988281 -0.429688 7.828125 0.0273438 8.921875 0.417969 C 8.742188 0.644531 8.578125 0.878906 8.421875 1.121094 C 7.382812 0.675781 6.550781 0.164062 5.929688 -0.421875 C 5.363281 0.132812 4.582031 0.675781 3.582031 1.199219 C 3.460938 1.003906 3.3125 0.808594 3.136719 0.609375 C 4.132812 0.109375 4.90625 -0.410156 5.449219 -0.945312 C 4.773438 -1.789062 4.335938 -2.839844 4.136719 -4.097656 C 3.972656 -3.777344 3.804688 -3.472656 3.628906 -3.175781 C 3.515625 -3.34375 3.359375 -3.53125 3.152344 -3.738281 M 2.363281 -7.433594 L 3.03125 -7.433594 L 3.03125 1.144531 L 2.363281 1.144531 L 2.363281 -1.5625 C 2.007812 -1.367188 1.640625 -1.144531 1.273438 -0.898438 C 1.121094 -0.789062 0.972656 -0.660156 0.824219 -0.503906 L 0.324219 -1.09375 C 0.503906 -1.285156 0.597656 -1.535156 0.597656 -1.847656 L 0.597656 -6.207031 L 1.265625 -6.207031 L 1.265625 -1.707031 C 1.613281 -1.894531 1.976562 -2.089844 2.363281 -2.296875 L 2.363281 -7.433594 M 7.003906 -5.097656 L 4.667969 -5.097656 C 4.75 -3.671875 5.164062 -2.46875 5.90625 -1.488281 C 6.574219 -2.429688 6.9375 -3.632812 7.003906 -5.097656 "
           id="path477" />
      </symbol>
      <symbol
         overflow="visible"
         id="glyph1-14">
        <path
           style="stroke:none;"
           d="M 5.980469 -1.304688 C 6.734375 -0.632812 7.421875 0.0429688 8.042969 0.726562 L 7.457031 1.199219 C 7.273438 0.984375 7.074219 0.753906 6.859375 0.519531 C 5.152344 0.574219 3.5625 0.664062 2.089844 0.777344 C 1.859375 0.800781 1.605469 0.847656 1.34375 0.917969 L 0.984375 0.222656 C 1.335938 0.109375 1.617188 -0.0390625 1.835938 -0.214844 C 2.226562 -0.578125 2.636719 -1.035156 3.054688 -1.59375 L 0.226562 -1.59375 L 0.226562 -2.234375 L 8.765625 -2.234375 L 8.765625 -1.59375 L 4.007812 -1.59375 C 3.503906 -0.996094 2.992188 -0.441406 2.46875 0.0742188 C 4.257812 0.0273438 5.550781 -0.0117188 6.339844 -0.0390625 C 6.066406 -0.328125 5.769531 -0.628906 5.453125 -0.945312 L 5.980469 -1.304688 M 0.5 -5.457031 L 4.144531 -5.457031 L 4.144531 -7.453125 L 4.855469 -7.453125 L 4.855469 -5.457031 L 8.511719 -5.457031 L 8.511719 -3.808594 L 7.816406 -3.808594 L 7.816406 -4.816406 L 1.195312 -4.816406 L 1.195312 -3.808594 L 0.5 -3.808594 L 0.5 -5.457031 M 7.542969 -3.210938 L 1.484375 -3.210938 L 1.484375 -3.851562 L 7.542969 -3.851562 L 7.542969 -3.210938 M 7.632812 -6.898438 C 7.332031 -6.546875 6.917969 -6.117188 6.386719 -5.609375 L 5.859375 -6.054688 C 6.324219 -6.496094 6.722656 -6.921875 7.042969 -7.339844 L 7.632812 -6.898438 M 1.371094 -6.898438 L 1.851562 -7.320312 C 2.257812 -6.96875 2.671875 -6.5625 3.101562 -6.089844 L 2.546875 -5.609375 C 2.15625 -6.082031 1.761719 -6.511719 1.371094 -6.898438 "
           id="path480" />
      </symbol>
      <symbol
         overflow="visible"
         id="glyph1-15">
        <path
           style="stroke:none;"
           d="M 2.6875 -5.730469 L 5.894531 -5.730469 C 5.890625 -6.269531 5.882812 -6.859375 5.882812 -7.496094 L 6.578125 -7.496094 C 6.566406 -6.800781 6.5625 -6.210938 6.570312 -5.730469 L 8.738281 -5.730469 L 8.738281 -5.089844 L 6.582031 -5.089844 C 6.640625 -2.613281 6.917969 -0.925781 7.414062 -0.03125 C 7.59375 0.273438 7.746094 0.425781 7.867188 0.425781 C 7.96875 0.425781 8.039062 0.308594 8.078125 0.0742188 C 8.136719 -0.28125 8.179688 -0.746094 8.210938 -1.320312 C 8.460938 -1.222656 8.679688 -1.144531 8.871094 -1.09375 C 8.796875 -0.433594 8.722656 0.0703125 8.652344 0.417969 C 8.558594 0.910156 8.3125 1.15625 7.914062 1.15625 C 7.585938 1.15625 7.261719 0.929688 6.9375 0.480469 C 6.339844 -0.386719 6 -2.242188 5.910156 -5.089844 L 2.6875 -5.089844 L 2.6875 -5.730469 M 2.53125 -0.09375 C 2.96875 -0.148438 3.433594 -0.21875 3.917969 -0.292969 L 3.917969 -3.015625 L 2.660156 -3.015625 L 2.660156 -3.640625 L 5.699219 -3.640625 L 5.699219 -3.015625 L 4.566406 -3.015625 L 4.566406 -0.394531 C 5.027344 -0.46875 5.503906 -0.554688 6 -0.644531 C 5.988281 -0.414062 5.980469 -0.183594 5.980469 0.0390625 C 4.699219 0.242188 3.605469 0.429688 2.703125 0.59375 L 2.53125 -0.09375 M 2.863281 -1.875 C 2.890625 -1.546875 2.925781 -1.265625 2.960938 -1.023438 C 2.570312 -0.648438 2.175781 -0.257812 1.78125 0.144531 C 1.601562 0.332031 1.449219 0.507812 1.324219 0.679688 L 0.835938 0.117188 C 1.039062 -0.109375 1.140625 -0.390625 1.140625 -0.726562 L 1.140625 -3.957031 L 0.121094 -3.957031 L 0.121094 -4.582031 L 1.808594 -4.582031 L 1.808594 -0.804688 C 2.125 -1.105469 2.476562 -1.464844 2.863281 -1.875 M 0.984375 -7.269531 C 1.511719 -6.753906 1.972656 -6.265625 2.371094 -5.808594 L 1.792969 -5.308594 C 1.421875 -5.792969 0.988281 -6.296875 0.484375 -6.820312 L 0.984375 -7.269531 M 6.910156 -6.882812 L 7.316406 -7.304688 C 7.785156 -6.957031 8.15625 -6.652344 8.429688 -6.390625 L 7.949219 -5.898438 C 7.628906 -6.242188 7.28125 -6.570312 6.910156 -6.882812 "
           id="path483" />
      </symbol>
      <symbol
         overflow="visible"
         id="glyph1-16">
        <path
           style="stroke:none;"
           d="M 1.089844 -6.277344 L 3.359375 -6.277344 C 3.484375 -6.613281 3.621094 -7.019531 3.777344 -7.488281 L 4.523438 -7.257812 C 4.375 -6.898438 4.230469 -6.570312 4.089844 -6.277344 L 7.902344 -6.277344 L 7.902344 1.15625 L 7.203125 1.15625 L 7.203125 0.628906 L 1.792969 0.628906 L 1.792969 1.15625 L 1.089844 1.15625 L 1.089844 -6.277344 M 1.792969 -0.00390625 L 7.203125 -0.00390625 L 7.203125 -1.480469 L 1.792969 -1.480469 L 1.792969 -0.00390625 M 1.792969 -2.105469 L 7.203125 -2.105469 L 7.203125 -3.5625 L 1.792969 -3.5625 L 1.792969 -2.105469 M 7.203125 -5.644531 L 1.792969 -5.644531 L 1.792969 -4.183594 L 7.203125 -4.183594 L 7.203125 -5.644531 "
           id="path486" />
      </symbol>
      <symbol
         overflow="visible"
         id="glyph1-17">
        <path
           style="stroke:none;"
           d="M 4.179688 -5.652344 L 5.488281 -5.652344 C 5.496094 -6.242188 5.503906 -6.84375 5.496094 -7.460938 L 6.21875 -7.460938 C 6.214844 -6.851562 6.210938 -6.246094 6.195312 -5.652344 L 8.5625 -5.652344 C 8.523438 -3.4375 8.464844 -1.65625 8.386719 -0.304688 C 8.324219 0.523438 7.9375 0.941406 7.238281 0.953125 C 6.875 0.953125 6.480469 0.945312 6.050781 0.925781 C 6.011719 0.679688 5.964844 0.421875 5.910156 0.152344 C 6.316406 0.207031 6.683594 0.234375 7.015625 0.242188 C 7.449219 0.242188 7.675781 0 7.695312 -0.488281 C 7.78125 -1.9375 7.832031 -3.4375 7.851562 -4.984375 L 6.183594 -4.984375 C 6.179688 -4.734375 6.171875 -4.484375 6.164062 -4.238281 C 6.136719 -1.933594 5.441406 -0.109375 4.074219 1.226562 C 3.914062 1.027344 3.738281 0.828125 3.546875 0.628906 C 4.769531 -0.460938 5.410156 -2.089844 5.460938 -4.253906 C 5.46875 -4.496094 5.472656 -4.738281 5.480469 -4.984375 L 4.179688 -4.984375 L 4.179688 -5.652344 M 3.285156 -2.621094 C 3.652344 -1.828125 3.992188 -1.035156 4.304688 -0.25 C 4.046875 -0.140625 3.828125 -0.0429688 3.644531 0.0390625 C 3.605469 -0.0703125 3.5625 -0.183594 3.523438 -0.292969 C 2.40625 -0.1875 1.390625 -0.0820312 0.472656 0.0234375 L 0.167969 -0.691406 C 0.421875 -0.835938 0.632812 -1.070312 0.789062 -1.402344 C 1.074219 -1.976562 1.375 -2.710938 1.6875 -3.597656 L 0.203125 -3.597656 L 0.203125 -4.246094 L 4.445312 -4.246094 L 4.445312 -3.597656 L 2.425781 -3.597656 C 1.921875 -2.347656 1.492188 -1.382812 1.125 -0.691406 C 1.796875 -0.738281 2.519531 -0.804688 3.296875 -0.886719 C 3.101562 -1.382812 2.894531 -1.871094 2.679688 -2.347656 L 3.285156 -2.621094 M 0.570312 -6.714844 L 4.09375 -6.714844 L 4.09375 -6.066406 L 0.570312 -6.066406 L 0.570312 -6.714844 "
           id="path489" />
      </symbol>
      <symbol
         overflow="visible"
         id="glyph1-18">
        <path
           style="stroke:none;"
           d="M 0.226562 -6.75 L 8.765625 -6.75 L 8.765625 -6.03125 L 4.496094 -6.03125 L 4.496094 -4.113281 L 4.902344 -4.675781 C 6.238281 -3.886719 7.363281 -3.175781 8.273438 -2.542969 L 7.753906 -1.832031 C 6.847656 -2.527344 5.761719 -3.261719 4.496094 -4.035156 L 4.496094 1.121094 L 3.699219 1.121094 L 3.699219 -6.03125 L 0.226562 -6.03125 L 0.226562 -6.75 "
           id="path492" />
      </symbol>
      <symbol
         overflow="visible"
         id="glyph1-19">
        <path
           style="stroke:none;"
           d="M 4.046875 0.585938 C 4.742188 0.109375 5.367188 -0.460938 5.917969 -1.132812 C 5.621094 -2.035156 5.433594 -3.171875 5.347656 -4.546875 L 0.175781 -4.546875 L 0.175781 -5.132812 L 2.363281 -5.132812 L 2.363281 -5.949219 L 0.535156 -5.949219 L 0.535156 -6.503906 L 2.363281 -6.503906 L 2.363281 -7.398438 L 3.011719 -7.398438 L 3.011719 -6.503906 L 4.742188 -6.503906 L 4.742188 -5.949219 L 3.011719 -5.949219 L 3.011719 -5.132812 L 5.3125 -5.132812 C 5.277344 -5.828125 5.246094 -6.601562 5.214844 -7.445312 L 5.894531 -7.445312 C 5.894531 -6.621094 5.917969 -5.851562 5.957031 -5.132812 L 8.878906 -5.132812 L 8.878906 -4.546875 L 5.992188 -4.546875 C 6.054688 -3.464844 6.195312 -2.546875 6.410156 -1.78125 C 6.851562 -2.410156 7.242188 -3.113281 7.578125 -3.886719 L 8.183594 -3.605469 C 7.734375 -2.636719 7.226562 -1.78125 6.664062 -1.035156 C 6.847656 -0.605469 7.0625 -0.246094 7.308594 0.046875 C 7.457031 0.222656 7.597656 0.3125 7.730469 0.3125 C 7.886719 0.3125 7.992188 0.195312 8.042969 -0.0390625 C 8.113281 -0.355469 8.179688 -0.753906 8.246094 -1.234375 C 8.480469 -1.128906 8.691406 -1.050781 8.878906 -0.996094 C 8.804688 -0.5 8.71875 -0.0585938 8.625 0.328125 C 8.480469 0.851562 8.21875 1.109375 7.84375 1.109375 C 7.417969 1.109375 7.007812 0.839844 6.621094 0.292969 C 6.464844 0.078125 6.320312 -0.167969 6.191406 -0.449219 C 5.6875 0.128906 5.148438 0.625 4.566406 1.039062 C 4.390625 0.84375 4.21875 0.691406 4.046875 0.585938 M 1.414062 -2.070312 L 2.617188 -2.070312 L 2.617188 -2.875 L 3.242188 -2.875 L 3.242188 -2.070312 L 4.902344 -2.070312 L 4.902344 -1.515625 L 3.242188 -1.515625 L 3.242188 -0.699219 C 3.777344 -0.742188 4.339844 -0.789062 4.9375 -0.839844 C 4.917969 -0.652344 4.910156 -0.460938 4.910156 -0.269531 C 4.382812 -0.234375 3.828125 -0.191406 3.242188 -0.140625 L 3.242188 1.144531 L 2.617188 1.144531 L 2.617188 -0.0820312 C 1.929688 -0.0273438 1.203125 0.0429688 0.4375 0.128906 L 0.296875 -0.503906 C 0.996094 -0.542969 1.765625 -0.59375 2.617188 -0.65625 L 2.617188 -1.515625 L 0.683594 -1.515625 L 0.683594 -2.085938 C 0.921875 -2.394531 1.15625 -2.734375 1.382812 -3.113281 L 0.386719 -3.113281 L 0.386719 -3.667969 L 1.703125 -3.667969 C 1.847656 -3.925781 1.988281 -4.203125 2.125 -4.492188 L 2.773438 -4.289062 C 2.65625 -4.070312 2.539062 -3.863281 2.425781 -3.667969 L 4.972656 -3.667969 L 4.972656 -3.113281 L 2.09375 -3.113281 C 1.851562 -2.714844 1.625 -2.367188 1.414062 -2.070312 M 6.480469 -6.800781 L 6.910156 -7.234375 C 7.503906 -6.789062 7.984375 -6.394531 8.351562 -6.046875 L 7.851562 -5.539062 C 7.453125 -5.964844 6.996094 -6.386719 6.480469 -6.800781 "
           id="path495" />
      </symbol>
      <symbol
         overflow="visible"
         id="glyph1-20">
        <path
           style="stroke:none;"
           d="M 5.226562 -3.9375 L 6.09375 -3.9375 C 5.828125 -3.675781 5.546875 -3.425781 5.261719 -3.191406 L 8.457031 -3.191406 L 8.457031 -2.550781 C 6.574219 -0.507812 4.058594 0.757812 0.914062 1.25 C 0.808594 1.039062 0.675781 0.820312 0.519531 0.59375 C 1.945312 0.386719 3.226562 0.0390625 4.355469 -0.453125 C 4.1875 -0.675781 3.945312 -0.945312 3.628906 -1.269531 L 4.152344 -1.65625 C 4.453125 -1.347656 4.726562 -1.039062 4.972656 -0.734375 C 5.953125 -1.234375 6.800781 -1.851562 7.507812 -2.578125 L 4.496094 -2.578125 C 3.46875 -1.804688 2.378906 -1.171875 1.238281 -0.679688 C 1.132812 -0.851562 0.992188 -1.050781 0.816406 -1.277344 C 2.445312 -1.933594 3.914062 -2.820312 5.226562 -3.9375 M 3.898438 -7.46875 L 4.785156 -7.46875 C 4.488281 -7.148438 4.183594 -6.847656 3.875 -6.566406 L 8.007812 -6.566406 L 8.007812 -5.96875 C 5.996094 -4.347656 3.550781 -3.136719 0.675781 -2.339844 C 0.554688 -2.574219 0.417969 -2.78125 0.273438 -2.957031 C 1.476562 -3.273438 2.558594 -3.632812 3.523438 -4.035156 C 3.3125 -4.269531 3.035156 -4.554688 2.6875 -4.898438 L 3.179688 -5.28125 C 3.523438 -4.949219 3.84375 -4.625 4.136719 -4.308594 C 5.207031 -4.792969 6.148438 -5.339844 6.957031 -5.949219 L 3.171875 -5.949219 C 2.5625 -5.429688 1.839844 -4.933594 1 -4.457031 C 0.875 -4.632812 0.710938 -4.816406 0.519531 -5.011719 C 1.859375 -5.722656 2.984375 -6.542969 3.898438 -7.46875 "
           id="path498" />
      </symbol>
      <symbol
         overflow="visible"
         id="glyph1-21">
        <path
           style="stroke:none;"
           d="M 3.347656 -4.710938 L 6.558594 -4.710938 L 6.558594 -0.707031 L 3.976562 -0.707031 L 3.976562 -0.1875 L 3.347656 -0.1875 L 3.347656 -4.710938 M 2.25 -4.605469 C 2.972656 -5.449219 3.578125 -6.425781 4.066406 -7.539062 L 4.734375 -7.285156 C 4.582031 -6.96875 4.421875 -6.667969 4.265625 -6.382812 L 8.546875 -6.382812 C 8.476562 -3.707031 8.417969 -1.769531 8.371094 -0.566406 C 8.324219 0.488281 7.867188 1.015625 7 1.015625 C 6.46875 1.015625 5.988281 1 5.566406 0.96875 C 5.53125 0.738281 5.484375 0.480469 5.417969 0.199219 C 5.9375 0.277344 6.410156 0.320312 6.832031 0.320312 C 7.359375 0.320312 7.644531 -0.0195312 7.683594 -0.699219 C 7.742188 -2.015625 7.792969 -3.699219 7.832031 -5.75 L 3.898438 -5.75 C 3.550781 -5.175781 3.191406 -4.664062 2.820312 -4.210938 C 2.679688 -4.328125 2.488281 -4.460938 2.25 -4.605469 M 2.855469 -0.910156 C 2.871094 -0.605469 2.890625 -0.355469 2.914062 -0.152344 C 2.171875 0.332031 1.628906 0.71875 1.28125 1.015625 L 0.871094 0.425781 C 1.066406 0.257812 1.167969 0.00390625 1.167969 -0.328125 L 1.167969 -3.816406 L 0.140625 -3.816406 L 0.140625 -4.449219 L 1.84375 -4.449219 L 1.84375 -0.207031 C 2.179688 -0.429688 2.515625 -0.664062 2.855469 -0.910156 M 5.929688 -1.304688 L 5.929688 -2.4375 L 3.976562 -2.4375 L 3.976562 -1.304688 L 5.929688 -1.304688 M 5.929688 -4.113281 L 3.976562 -4.113281 L 3.976562 -3.015625 L 5.929688 -3.015625 L 5.929688 -4.113281 M 1.019531 -7.320312 C 1.65625 -6.667969 2.117188 -6.179688 2.40625 -5.863281 L 1.808594 -5.363281 C 1.441406 -5.847656 1.003906 -6.351562 0.5 -6.871094 L 1.019531 -7.320312 "
           id="path501" />
      </symbol>
      <symbol
         overflow="visible"
         id="glyph1-22">
        <path
           style="stroke:none;"
           d="M 2.617188 -4.710938 L 6.339844 -4.710938 L 6.339844 -1.199219 L 3.25 -1.199219 L 3.25 -0.699219 L 2.617188 -0.699219 L 2.617188 -4.710938 M 3.355469 -6.257812 L 3.355469 -6.917969 L 8.378906 -6.917969 L 8.378906 -0.128906 C 8.378906 0.71875 7.996094 1.144531 7.226562 1.144531 C 6.730469 1.144531 6.25 1.140625 5.789062 1.128906 C 5.765625 0.953125 5.71875 0.714844 5.648438 0.417969 C 6.132812 0.453125 6.601562 0.46875 7.050781 0.46875 C 7.476562 0.46875 7.695312 0.242188 7.695312 -0.214844 L 7.695312 -6.257812 L 3.355469 -6.257812 M 5.707031 -4.0625 L 3.25 -4.0625 L 3.25 -1.847656 L 5.707031 -1.847656 L 5.707031 -4.0625 M 0.605469 -5.738281 L 1.292969 -5.738281 L 1.292969 1.144531 L 0.605469 1.144531 L 0.605469 -5.738281 M 1.046875 -7.03125 L 1.546875 -7.480469 C 1.867188 -7.175781 2.292969 -6.746094 2.820312 -6.195312 L 2.25 -5.695312 C 1.746094 -6.28125 1.34375 -6.726562 1.046875 -7.03125 "
           id="path504" />
      </symbol>
      <symbol
         overflow="visible"
         id="glyph1-23">
        <path
           style="stroke:none;"
           d="M 3.917969 1.109375 L 3.230469 1.109375 L 3.230469 -3.34375 L 8.113281 -3.34375 L 8.113281 0.0742188 C 8.113281 0.707031 7.789062 1.027344 7.140625 1.03125 C 6.796875 1.035156 6.355469 1.039062 5.8125 1.039062 C 5.785156 0.855469 5.742188 0.628906 5.683594 0.363281 C 6.191406 0.398438 6.605469 0.417969 6.929688 0.417969 C 7.261719 0.417969 7.429688 0.265625 7.429688 -0.0390625 L 7.429688 -0.480469 L 3.917969 -0.480469 L 3.917969 1.109375 M 2.460938 -4.429688 L 5.296875 -4.429688 L 5.296875 -5.035156 L 3.046875 -5.035156 L 3.046875 -5.589844 L 5.296875 -5.589844 L 5.296875 -6.179688 L 2.738281 -6.179688 L 2.738281 -6.730469 L 5.296875 -6.730469 L 5.296875 -7.523438 L 6.007812 -7.523438 L 6.007812 -6.730469 L 8.6875 -6.730469 L 8.6875 -6.179688 L 6.007812 -6.179688 L 6.007812 -5.589844 L 8.457031 -5.589844 L 8.457031 -5.035156 L 6.007812 -5.035156 L 6.007812 -4.429688 L 8.863281 -4.429688 L 8.863281 -3.878906 L 2.460938 -3.878906 L 2.460938 -4.429688 M 2.890625 -1.058594 C 2.90625 -0.765625 2.925781 -0.511719 2.949219 -0.292969 C 2.320312 0.128906 1.78125 0.507812 1.34375 0.847656 L 0.941406 0.269531 C 1.136719 0.0820312 1.238281 -0.171875 1.238281 -0.496094 L 1.238281 -3.816406 L 0.167969 -3.816406 L 0.167969 -4.457031 L 1.90625 -4.457031 L 1.90625 -0.363281 C 2.234375 -0.585938 2.558594 -0.816406 2.890625 -1.058594 M 7.429688 -2.78125 L 3.917969 -2.78125 L 3.917969 -2.171875 L 7.429688 -2.171875 L 7.429688 -2.78125 M 3.917969 -1.023438 L 7.429688 -1.023438 L 7.429688 -1.628906 L 3.917969 -1.628906 L 3.917969 -1.023438 M 1.160156 -7.222656 C 1.636719 -6.75 2.0625 -6.308594 2.433594 -5.898438 L 1.816406 -5.386719 C 1.414062 -5.910156 1.019531 -6.371094 0.632812 -6.777344 L 1.160156 -7.222656 "
           id="path507" />
      </symbol>
      <symbol
         overflow="visible"
         id="glyph1-24">
        <path
           style="stroke:none;"
           d="M 0.316406 -5.871094 L 4.171875 -5.871094 L 4.171875 -7.460938 L 4.910156 -7.460938 L 4.910156 -5.871094 L 8.746094 -5.871094 L 8.746094 -5.238281 L 4.910156 -5.238281 L 4.910156 -4.695312 C 5.195312 -4.039062 5.535156 -3.441406 5.929688 -2.902344 C 6.535156 -3.429688 7.109375 -4.015625 7.648438 -4.660156 L 8.273438 -4.140625 C 7.554688 -3.425781 6.917969 -2.835938 6.359375 -2.367188 C 7.0625 -1.546875 7.898438 -0.890625 8.878906 -0.398438 C 8.664062 -0.148438 8.488281 0.078125 8.351562 0.285156 C 6.839844 -0.597656 5.695312 -1.78125 4.910156 -3.261719 L 4.910156 -0.0390625 C 4.910156 0.714844 4.515625 1.09375 3.722656 1.09375 C 3.300781 1.09375 2.914062 1.089844 2.554688 1.074219 C 2.519531 0.835938 2.472656 0.574219 2.414062 0.292969 C 2.875 0.347656 3.253906 0.375 3.546875 0.375 C 3.964844 0.375 4.171875 0.160156 4.171875 -0.269531 L 4.171875 -1.929688 C 2.789062 -1.222656 1.585938 -0.574219 0.5625 0.00390625 L 0.183594 -0.714844 C 1.40625 -1.28125 2.734375 -1.957031 4.171875 -2.746094 L 4.171875 -5.238281 L 0.316406 -5.238281 L 0.316406 -5.871094 M 1.605469 -4.710938 C 2.074219 -4.25 2.550781 -3.734375 3.039062 -3.15625 C 2.859375 -3.007812 2.65625 -2.839844 2.433594 -2.664062 C 2.023438 -3.195312 1.570312 -3.738281 1.082031 -4.28125 L 1.605469 -4.710938 M 5.71875 -6.996094 L 6.140625 -7.460938 C 6.695312 -7.109375 7.136719 -6.792969 7.464844 -6.503906 L 6.992188 -5.976562 C 6.644531 -6.28125 6.222656 -6.621094 5.71875 -6.996094 "
           id="path510" />
      </symbol>
      <symbol
         overflow="visible"
         id="glyph1-25">
        <path
           style="stroke:none;"
           d="M 3.863281 0.488281 C 4.539062 0.0351562 5.140625 -0.492188 5.671875 -1.097656 C 5.335938 -1.960938 5.132812 -3.355469 5.070312 -5.28125 L 1.757812 -5.28125 L 1.757812 -3.949219 L 4.285156 -3.949219 C 4.25 -2.832031 4.203125 -1.890625 4.144531 -1.128906 C 4.074219 -0.320312 3.683594 0.0820312 2.96875 0.0820312 C 2.730469 0.0820312 2.410156 0.0742188 2.011719 0.046875 C 1.976562 -0.167969 1.929688 -0.410156 1.871094 -0.679688 C 2.277344 -0.625 2.621094 -0.59375 2.898438 -0.59375 C 3.238281 -0.59375 3.425781 -0.824219 3.46875 -1.296875 C 3.515625 -1.832031 3.550781 -2.5 3.574219 -3.296875 L 1.753906 -3.296875 C 1.707031 -1.265625 1.296875 0.242188 0.519531 1.214844 C 0.375 1.019531 0.21875 0.816406 0.0625 0.609375 C 0.722656 -0.269531 1.054688 -1.65625 1.054688 -3.554688 L 1.054688 -5.933594 L 5.046875 -5.933594 C 5.027344 -6.394531 5.007812 -6.894531 4.988281 -7.433594 L 5.71875 -7.433594 C 5.714844 -7.023438 5.722656 -6.523438 5.738281 -5.933594 L 8.765625 -5.933594 L 8.765625 -5.28125 L 5.761719 -5.28125 C 5.820312 -3.707031 5.964844 -2.53125 6.195312 -1.753906 C 6.761719 -2.519531 7.230469 -3.394531 7.597656 -4.371094 L 8.289062 -4.078125 C 7.789062 -2.890625 7.183594 -1.851562 6.476562 -0.96875 C 6.90625 -0.0976562 7.328125 0.34375 7.738281 0.34375 C 7.886719 0.34375 8 0.207031 8.078125 -0.0664062 C 8.160156 -0.492188 8.226562 -0.929688 8.273438 -1.382812 C 8.523438 -1.285156 8.746094 -1.203125 8.941406 -1.136719 C 8.851562 -0.511719 8.757812 0 8.652344 0.398438 C 8.542969 0.824219 8.296875 1.058594 7.914062 1.09375 C 7.558594 1.117188 7.214844 0.996094 6.886719 0.734375 C 6.53125 0.460938 6.230469 0.0859375 5.980469 -0.390625 C 5.488281 0.140625 4.949219 0.609375 4.363281 1.015625 C 4.214844 0.839844 4.046875 0.664062 3.863281 0.488281 M 6.386719 -7.003906 L 6.753906 -7.460938 C 7.246094 -7.179688 7.703125 -6.886719 8.132812 -6.582031 L 7.710938 -6.054688 C 7.289062 -6.390625 6.847656 -6.707031 6.386719 -7.003906 "
           id="path513" />
      </symbol>
      <symbol
         overflow="visible"
         id="glyph1-26">
        <path
           style="stroke:none;"
           d="M 0.5 -5.175781 L 3.796875 -5.175781 C 3.882812 -5.894531 3.925781 -6.671875 3.925781 -7.503906 L 4.679688 -7.503906 C 4.679688 -6.636719 4.640625 -5.859375 4.558594 -5.175781 L 8.289062 -5.175781 C 8.253906 -3.367188 8.203125 -1.875 8.132812 -0.699219 C 8.074219 0.394531 7.496094 0.945312 6.394531 0.945312 C 5.9375 0.945312 5.398438 0.929688 4.769531 0.898438 C 4.746094 0.671875 4.703125 0.398438 4.636719 0.0820312 C 5.1875 0.15625 5.726562 0.199219 6.261719 0.199219 C 6.964844 0.199219 7.332031 -0.148438 7.367188 -0.839844 C 7.449219 -1.984375 7.503906 -3.203125 7.527344 -4.492188 L 4.460938 -4.492188 C 4.03125 -1.910156 2.828125 0.0078125 0.851562 1.269531 C 0.6875 1.066406 0.507812 0.847656 0.316406 0.621094 C 2.136719 -0.453125 3.261719 -2.160156 3.691406 -4.492188 L 0.5 -4.492188 L 0.5 -5.175781 M 4.671875 -2.910156 L 5.15625 -3.34375 C 5.71875 -2.820312 6.226562 -2.308594 6.683594 -1.804688 L 6.140625 -1.3125 C 5.6875 -1.84375 5.199219 -2.378906 4.671875 -2.910156 M 1.125 -6.917969 L 1.597656 -7.355469 C 2.082031 -6.933594 2.550781 -6.5 3.003906 -6.054688 L 2.46875 -5.554688 C 2.035156 -6.03125 1.585938 -6.480469 1.125 -6.917969 "
           id="path516" />
      </symbol>
      <symbol
         overflow="visible"
         id="glyph1-27">
        <path
           style="stroke:none;"
           d="M 3.101562 -5.652344 L 4.625 -5.652344 C 4.644531 -6.25 4.65625 -6.835938 4.65625 -7.417969 L 5.339844 -7.417969 C 5.335938 -6.871094 5.320312 -6.285156 5.300781 -5.652344 L 7.4375 -5.652344 C 7.382812 -3.492188 7.3125 -1.6875 7.238281 -0.242188 C 7.203125 0.566406 6.796875 0.96875 6.015625 0.96875 C 5.824219 0.96875 5.503906 0.964844 5.050781 0.953125 C 5.011719 0.683594 4.960938 0.429688 4.902344 0.1875 C 5.28125 0.242188 5.613281 0.269531 5.902344 0.269531 C 6.324219 0.273438 6.546875 0.046875 6.570312 -0.410156 C 6.640625 -1.808594 6.695312 -3.328125 6.734375 -4.96875 L 5.277344 -4.96875 C 5.246094 -3.660156 5.144531 -2.621094 4.972656 -1.859375 C 4.671875 -0.699219 4.058594 0.285156 3.125 1.09375 C 2.980469 0.929688 2.808594 0.757812 2.617188 0.574219 C 3.453125 -0.164062 4.011719 -1.035156 4.292969 -2.042969 C 4.476562 -2.726562 4.582031 -3.703125 4.605469 -4.96875 L 3.101562 -4.96875 L 3.101562 -5.652344 M 0.132812 -4.898438 L 1.089844 -4.898438 L 1.089844 -7.410156 L 1.765625 -7.410156 L 1.765625 -4.898438 L 2.617188 -4.898438 L 2.617188 -4.253906 L 1.765625 -4.253906 L 1.765625 1.128906 L 1.089844 1.128906 L 1.089844 -4.253906 L 0.132812 -4.253906 L 0.132812 -4.898438 M 3.363281 -4.097656 L 3.953125 -3.878906 C 3.660156 -3.105469 3.320312 -2.277344 2.933594 -1.402344 C 2.753906 -1.5 2.554688 -1.589844 2.34375 -1.671875 C 2.726562 -2.410156 3.066406 -3.21875 3.363281 -4.097656 M 7.492188 -3.921875 L 8.078125 -4.105469 C 8.371094 -3.289062 8.636719 -2.515625 8.878906 -1.796875 L 8.238281 -1.578125 C 7.992188 -2.449219 7.742188 -3.230469 7.492188 -3.921875 "
           id="path519" />
      </symbol>
      <symbol
         overflow="visible"
         id="glyph1-28">
        <path
           style="stroke:none;"
           d="M 2.398438 -7.304688 C 2.273438 -6.738281 2.136719 -6.191406 1.984375 -5.667969 L 4.328125 -5.667969 L 4.328125 -5.027344 C 4.167969 -3.519531 3.730469 -2.203125 3.019531 -1.085938 C 3.550781 -0.484375 4.199219 -0.113281 4.960938 0.0234375 C 5.859375 0.179688 7.160156 0.222656 8.878906 0.144531 C 8.78125 0.375 8.695312 0.613281 8.625 0.875 C 7.023438 0.929688 5.773438 0.875 4.882812 0.699219 C 3.988281 0.546875 3.238281 0.144531 2.625 -0.503906 C 2.117188 0.164062 1.5 0.753906 0.773438 1.269531 C 0.578125 1.089844 0.386719 0.914062 0.191406 0.75 C 0.984375 0.21875 1.636719 -0.390625 2.160156 -1.074219 C 1.738281 -1.703125 1.40625 -2.484375 1.160156 -3.421875 C 0.980469 -3.015625 0.785156 -2.628906 0.578125 -2.261719 C 0.457031 -2.425781 0.289062 -2.625 0.0703125 -2.867188 C 0.789062 -4.148438 1.320312 -5.664062 1.667969 -7.417969 L 2.398438 -7.304688 M 5.410156 -7.382812 L 6.140625 -7.382812 L 6.140625 -4.441406 L 6.523438 -4.886719 C 7.355469 -4.324219 8.105469 -3.773438 8.773438 -3.226562 L 8.300781 -2.621094 C 7.679688 -3.167969 6.960938 -3.734375 6.140625 -4.324219 L 6.140625 -0.207031 L 5.410156 -0.207031 L 5.410156 -7.382812 M 3.617188 -5.003906 L 1.773438 -5.003906 C 1.703125 -4.792969 1.632812 -4.585938 1.5625 -4.386719 C 1.800781 -3.28125 2.136719 -2.378906 2.574219 -1.683594 C 3.164062 -2.652344 3.511719 -3.757812 3.617188 -5.003906 "
           id="path522" />
      </symbol>
      <symbol
         overflow="visible"
         id="glyph1-29">
        <path
           style="stroke:none;"
           d="M 2.855469 0.234375 L 5.601562 0.234375 L 5.601562 -1.03125 L 3.363281 -1.03125 L 3.363281 -1.648438 L 5.601562 -1.648438 L 5.601562 -2.804688 L 4.199219 -2.804688 L 4.199219 -2.480469 L 3.546875 -2.480469 L 3.546875 -7.011719 L 8.308594 -7.011719 L 8.308594 -2.480469 L 7.660156 -2.480469 L 7.660156 -2.804688 L 6.253906 -2.804688 L 6.253906 -1.648438 L 8.492188 -1.648438 L 8.492188 -1.03125 L 6.253906 -1.03125 L 6.253906 0.234375 L 8.878906 0.234375 L 8.878906 0.847656 L 2.855469 0.847656 L 2.855469 0.234375 M 0.0625 -0.285156 C 0.511719 -0.394531 0.949219 -0.5 1.371094 -0.609375 L 1.371094 -3.273438 L 0.273438 -3.273438 L 0.273438 -3.886719 L 1.371094 -3.886719 L 1.371094 -6.082031 L 0.183594 -6.082031 L 0.183594 -6.695312 L 3.207031 -6.695312 L 3.207031 -6.082031 L 2.019531 -6.082031 L 2.019531 -3.886719 L 3.136719 -3.886719 L 3.136719 -3.273438 L 2.019531 -3.273438 L 2.019531 -0.785156 C 2.40625 -0.894531 2.78125 -1 3.144531 -1.109375 C 3.171875 -0.847656 3.207031 -0.621094 3.242188 -0.425781 C 2.238281 -0.15625 1.261719 0.128906 0.296875 0.425781 L 0.0625 -0.285156 M 6.253906 -3.402344 L 7.660156 -3.402344 L 7.660156 -4.625 L 6.253906 -4.625 L 6.253906 -3.402344 M 4.199219 -3.402344 L 5.601562 -3.402344 L 5.601562 -4.625 L 4.199219 -4.625 L 4.199219 -3.402344 M 7.660156 -6.417969 L 6.253906 -6.417969 L 6.253906 -5.203125 L 7.660156 -5.203125 L 7.660156 -6.417969 M 4.199219 -5.203125 L 5.601562 -5.203125 L 5.601562 -6.417969 L 4.199219 -6.417969 L 4.199219 -5.203125 "
           id="path525" />
      </symbol>
      <symbol
         overflow="visible"
         id="glyph1-30">
        <path
           style="stroke:none;"
           d="M 3.863281 -7.066406 L 8.21875 -7.066406 L 8.21875 -4.054688 L 7.554688 -4.054688 L 7.554688 -4.414062 L 4.53125 -4.414062 L 4.53125 -4.054688 L 3.863281 -4.054688 L 3.863281 -7.066406 M 0.0625 -1.269531 C 0.640625 -2.113281 1.085938 -3.117188 1.394531 -4.273438 L 0.167969 -4.273438 L 0.167969 -4.851562 L 1.535156 -4.851562 L 1.535156 -6.226562 C 1.167969 -6.175781 0.789062 -6.125 0.402344 -6.082031 C 0.359375 -6.28125 0.296875 -6.480469 0.21875 -6.6875 C 1.214844 -6.769531 2.21875 -6.925781 3.230469 -7.164062 L 3.425781 -6.546875 C 3.019531 -6.464844 2.597656 -6.390625 2.167969 -6.320312 L 2.167969 -4.851562 L 3.390625 -4.851562 L 3.390625 -4.273438 L 2.167969 -4.273438 L 2.167969 -3.113281 L 2.511719 -3.414062 C 2.746094 -3.171875 3.085938 -2.789062 3.539062 -2.261719 L 3.011719 -1.832031 C 2.675781 -2.265625 2.394531 -2.613281 2.167969 -2.882812 L 2.167969 1.179688 L 1.535156 1.179688 L 1.535156 -3.027344 C 1.226562 -2.019531 0.835938 -1.179688 0.359375 -0.503906 C 0.269531 -0.753906 0.167969 -1.011719 0.0625 -1.269531 M 3.160156 0.117188 L 5.671875 0.117188 L 5.671875 -1.179688 L 3.679688 -1.179688 L 3.679688 -1.769531 L 5.671875 -1.769531 L 5.671875 -2.964844 L 3.46875 -2.964844 L 3.46875 -3.554688 L 8.589844 -3.554688 L 8.589844 -2.964844 L 6.375 -2.964844 L 6.375 -1.769531 L 8.371094 -1.769531 L 8.371094 -1.179688 L 6.375 -1.179688 L 6.375 0.117188 L 8.886719 0.117188 L 8.886719 0.707031 L 3.160156 0.707031 L 3.160156 0.117188 M 7.554688 -6.46875 L 4.53125 -6.46875 L 4.53125 -5.011719 L 7.554688 -5.011719 L 7.554688 -6.46875 "
           id="path528" />
      </symbol>
      <symbol
         overflow="visible"
         id="glyph1-31">
        <path
           style="stroke:none;"
           d="M 2.019531 -2.761719 L 5.105469 -2.761719 C 4.5625 -3.160156 4.042969 -3.519531 3.546875 -3.824219 L 3.96875 -4.273438 C 4.410156 -4.007812 4.824219 -3.742188 5.226562 -3.484375 L 6.816406 -4.421875 L 2.539062 -4.421875 L 2.539062 -5.054688 L 8.089844 -5.054688 L 8.089844 -4.414062 L 5.820312 -3.078125 C 5.890625 -3.03125 5.964844 -2.980469 6.035156 -2.929688 L 5.800781 -2.761719 L 8.6875 -2.761719 L 8.6875 -2.113281 L 7.921875 -0.539062 C 7.746094 -0.632812 7.53125 -0.738281 7.273438 -0.855469 L 7.894531 -2.121094 L 5.789062 -2.121094 L 5.789062 -0.03125 C 5.789062 0.675781 5.453125 1.03125 4.777344 1.03125 C 4.421875 1.03125 3.984375 1.027344 3.460938 1.015625 C 3.4375 0.816406 3.402344 0.5625 3.355469 0.257812 C 3.816406 0.324219 4.21875 0.355469 4.566406 0.355469 C 4.902344 0.355469 5.066406 0.1875 5.066406 -0.144531 L 5.066406 -2.121094 L 2.019531 -2.121094 L 2.019531 -2.761719 M 4.1875 -7.234375 L 4.820312 -7.574219 C 5.050781 -7.285156 5.261719 -6.984375 5.453125 -6.671875 L 5.035156 -6.425781 L 8.773438 -6.425781 L 8.773438 -5.785156 L 1.773438 -5.785156 L 1.773438 -3.394531 C 1.773438 -1.3125 1.375 0.226562 0.570312 1.226562 C 0.429688 1.03125 0.261719 0.835938 0.0703125 0.628906 C 0.714844 -0.121094 1.035156 -1.402344 1.035156 -3.21875 L 1.035156 -6.425781 L 4.734375 -6.425781 C 4.554688 -6.71875 4.375 -6.988281 4.1875 -7.234375 "
           id="path531" />
      </symbol>
    </g>
    <clipPath
       id="clip1">
      <path
         d="M 0 10 L 12.175781 10 L 12.175781 13.140625 L 0 13.140625 Z M 0 10 "
         id="path536" />
    </clipPath>
  </defs>
  <g
     id="surface84650">
    <rect
       x="0"
       y="0"
       width="12.175"
       height="13.139"
       style="fill:rgb(100%,100%,100%);fill-opacity:0;stroke:none;"
       id="rect541" />
    <rect
       x="0"
       y="0"
       width="12.175"
       height="13.139"
       style="fill:rgb(100%,100%,100%);fill-opacity:0;stroke:none;"
       id="rect543" />
    <rect
       x="0"
       y="0"
       width="12.175"
       height="13.139"
       style="fill:rgb(100%,100%,100%);fill-opacity:0;stroke:none;"
       id="rect545" />
    <path
       style=" stroke:none;fill-rule:nonzero;fill:rgb(100%,100%,100%);fill-opacity:0;"
       d="M -13.527344 831.636719 L -13.527344 -611.890625 C -13.527344 -612.285156 -13.449219 -612.667969 -13.296875 -613.035156 C -13.148438 -613.402344 -12.929688 -613.726562 -12.648438 -614.007812 C -12.367188 -614.289062 -12.042969 -614.507812 -11.675781 -614.660156 C -11.308594 -614.8125 -10.925781 -614.886719 -10.527344 -614.886719 L 185.074219 -614.886719 C 185.472656 -614.886719 185.855469 -614.8125 186.222656 -614.660156 C 186.589844 -614.507812 186.914062 -614.289062 187.195312 -614.007812 C 187.476562 -613.726562 187.691406 -613.402344 187.84375 -613.035156 C 187.996094 -612.667969 188.074219 -612.285156 188.074219 -611.890625 L 188.074219 831.636719 C 188.074219 832.035156 187.996094 832.417969 187.84375 832.785156 C 187.691406 833.148438 187.476562 833.472656 187.195312 833.757812 C 186.914062 834.039062 186.589844 834.253906 186.222656 834.402344 C 185.855469 834.558594 185.472656 834.632812 185.074219 834.632812 L -10.527344 834.632812 C -10.925781 834.632812 -11.308594 834.558594 -11.675781 834.402344 C -12.042969 834.253906 -12.367188 834.039062 -12.648438 833.757812 C -12.929688 833.472656 -13.148438 833.148438 -13.296875 832.785156 C -13.449219 832.417969 -13.527344 832.035156 -13.527344 831.636719 "
       id="path547" />
    <g
       style="fill:rgb(16.862488%,16.862488%,16.862488%);fill-opacity:1;"
       id="g557">
      <use
         xlink:href="#glyph0-0"
         x="25.4444"
         y="-55.0159"
         id="use549" />
      <use
         xlink:href="#glyph0-1"
         x="35.9366"
         y="-55.0159"
         id="use551" />
      <use
         xlink:href="#glyph0-2"
         x="46.4288"
         y="-55.0159"
         id="use553" />
      <use
         xlink:href="#glyph0-3"
         x="56.921"
         y="-55.0159"
         id="use555" />
    </g>
    <g
       style="fill:rgb(12.940979%,12.940979%,12.940979%);fill-opacity:1;"
       id="g577">
      <use
         xlink:href="#glyph1-0"
         x="25.4444"
         y="-39.2761"
         id="use559" />
      <use
         xlink:href="#glyph1-1"
         x="34.4377"
         y="-39.2761"
         id="use561" />
      <use
         xlink:href="#glyph1-2"
         x="43.431"
         y="-39.2761"
         id="use563" />
      <use
         xlink:href="#glyph1-3"
         x="52.4243"
         y="-39.2761"
         id="use565" />
      <use
         xlink:href="#glyph1-4"
         x="61.4176"
         y="-39.2761"
         id="use567" />
      <use
         xlink:href="#glyph1-5"
         x="70.4109"
         y="-39.2761"
         id="use569" />
      <use
         xlink:href="#glyph1-6"
         x="79.4042"
         y="-39.2761"
         id="use571" />
      <use
         xlink:href="#glyph1-7"
         x="88.3975"
         y="-39.2761"
         id="use573" />
      <use
         xlink:href="#glyph1-8"
         x="97.3908"
         y="-39.2761"
         id="use575" />
    </g>
    <g
       style="fill:rgb(12.940979%,12.940979%,12.940979%);fill-opacity:1;"
       id="g591">
      <use
         xlink:href="#glyph1-6"
         x="25.4444"
         y="-27.2844"
         id="use579" />
      <use
         xlink:href="#glyph1-9"
         x="34.4377"
         y="-27.2844"
         id="use581" />
      <use
         xlink:href="#glyph1-10"
         x="43.431"
         y="-27.2844"
         id="use583" />
      <use
         xlink:href="#glyph1-11"
         x="52.4243"
         y="-27.2844"
         id="use585" />
      <use
         xlink:href="#glyph1-12"
         x="61.4176"
         y="-27.2844"
         id="use587" />
      <use
         xlink:href="#glyph1-13"
         x="70.4109"
         y="-27.2844"
         id="use589" />
    </g>
    <path
       style=" stroke:none;fill-rule:nonzero;fill:rgb(14.901733%,14.901733%,14.901733%);fill-opacity:1;"
       d="M 10.082031 11.6875 C 10.183594 11.679688 10.277344 11.710938 10.355469 11.773438 C 10.433594 11.84375 10.480469 11.925781 10.488281 12.03125 C 10.496094 12.132812 10.46875 12.226562 10.402344 12.304688 C 10.335938 12.386719 10.253906 12.429688 10.148438 12.4375 L 1.835938 12.4375 C 1.734375 12.449219 1.640625 12.417969 1.5625 12.351562 C 1.484375 12.285156 1.4375 12.199219 1.429688 12.097656 C 1.421875 11.992188 1.449219 11.902344 1.515625 11.824219 C 1.582031 11.742188 1.667969 11.699219 1.769531 11.6875 Z M 5.960938 0.445312 C 6.171875 0.441406 6.296875 0.546875 6.335938 0.753906 L 6.335938 9.664062 L 9.0625 6.929688 C 9.210938 6.78125 9.367188 6.765625 9.542969 6.886719 L 9.59375 6.929688 C 9.722656 7.058594 9.742188 7.261719 9.640625 7.402344 L 9.59375 7.453125 L 6.222656 10.828125 C 6.171875 10.882812 6.105469 10.914062 6.035156 10.933594 L 5.960938 10.941406 C 5.835938 10.941406 5.734375 10.890625 5.660156 10.789062 L 2.316406 7.453125 C 2.253906 7.386719 2.21875 7.304688 2.214844 7.207031 C 2.210938 7.113281 2.242188 7.027344 2.304688 6.957031 C 2.363281 6.882812 2.441406 6.839844 2.535156 6.824219 C 2.628906 6.8125 2.71875 6.832031 2.796875 6.886719 L 2.847656 6.929688 L 5.585938 9.65625 L 5.585938 0.820312 C 5.585938 0.613281 5.75 0.445312 5.960938 0.445312 "
       id="path593" />
    <g
       style="fill:rgb(16.862488%,16.862488%,16.862488%);fill-opacity:1;"
       id="g603">
      <use
         xlink:href="#glyph0-4"
         x="25.4444"
         y="8.6914"
         id="use595" />
      <use
         xlink:href="#glyph0-5"
         x="35.9366"
         y="8.6914"
         id="use597" />
      <use
         xlink:href="#glyph0-6"
         x="46.4288"
         y="8.6914"
         id="use599" />
      <use
         xlink:href="#glyph0-7"
         x="56.921"
         y="8.6914"
         id="use601" />
    </g>
    <g
       style="fill:rgb(12.940979%,12.940979%,12.940979%);fill-opacity:1;"
       id="g623">
      <use
         xlink:href="#glyph1-7"
         x="25.4444"
         y="24.4306"
         id="use605" />
      <use
         xlink:href="#glyph1-8"
         x="34.4377"
         y="24.4306"
         id="use607" />
      <use
         xlink:href="#glyph1-14"
         x="43.431"
         y="24.4306"
         id="use609" />
      <use
         xlink:href="#glyph1-15"
         x="52.4243"
         y="24.4306"
         id="use611" />
      <use
         xlink:href="#glyph1-16"
         x="61.4176"
         y="24.4306"
         id="use613" />
      <use
         xlink:href="#glyph1-17"
         x="70.4109"
         y="24.4306"
         id="use615" />
      <use
         xlink:href="#glyph1-18"
         x="79.4042"
         y="24.4306"
         id="use617" />
      <use
         xlink:href="#glyph1-19"
         x="88.3975"
         y="24.4306"
         id="use619" />
      <use
         xlink:href="#glyph1-20"
         x="97.3908"
         y="24.4306"
         id="use621" />
    </g>
    <g
       style="fill:rgb(12.940979%,12.940979%,12.940979%);fill-opacity:1;"
       id="g629">
      <use
         xlink:href="#glyph1-21"
         x="25.4444"
         y="36.4223"
         id="use625" />
      <use
         xlink:href="#glyph1-22"
         x="34.4377"
         y="36.4223"
         id="use627" />
    </g>
    <g
       style="fill:rgb(16.862488%,16.862488%,16.862488%);fill-opacity:1;"
       id="g643">
      <use
         xlink:href="#glyph0-8"
         x="25.4444"
         y="72.3982"
         id="use631" />
      <use
         xlink:href="#glyph0-9"
         x="35.9366"
         y="72.3982"
         id="use633" />
      <use
         xlink:href="#glyph0-10"
         x="46.4288"
         y="72.3982"
         id="use635" />
      <use
         xlink:href="#glyph0-11"
         x="56.921"
         y="72.3982"
         id="use637" />
      <use
         xlink:href="#glyph0-12"
         x="67.4132"
         y="72.3982"
         id="use639" />
      <use
         xlink:href="#glyph0-13"
         x="77.9054"
         y="72.3982"
         id="use641" />
    </g>
    <g
       style="fill:rgb(12.940979%,12.940979%,12.940979%);fill-opacity:1;"
       id="g663">
      <use
         xlink:href="#glyph1-0"
         x="25.4444"
         y="88.1375"
         id="use645" />
      <use
         xlink:href="#glyph1-1"
         x="34.4377"
         y="88.1375"
         id="use647" />
      <use
         xlink:href="#glyph1-7"
         x="43.431"
         y="88.1375"
         id="use649" />
      <use
         xlink:href="#glyph1-8"
         x="52.4243"
         y="88.1375"
         id="use651" />
      <use
         xlink:href="#glyph1-23"
         x="61.4176"
         y="88.1375"
         id="use653" />
      <use
         xlink:href="#glyph1-24"
         x="70.4109"
         y="88.1375"
         id="use655" />
      <use
         xlink:href="#glyph1-25"
         x="79.4042"
         y="88.1375"
         id="use657" />
      <use
         xlink:href="#glyph1-26"
         x="88.3975"
         y="88.1375"
         id="use659" />
      <use
         xlink:href="#glyph1-27"
         x="97.3908"
         y="88.1375"
         id="use661" />
    </g>
    <g
       clip-path="url(#clip1)"
       clip-rule="nonzero"
       id="g675">
      <g
         style="fill:rgb(12.940979%,12.940979%,12.940979%);fill-opacity:1;"
         id="g673">
        <use
           xlink:href="#glyph1-28"
           x="25.4444"
           y="100.1292"
           id="use665" />
        <use
           xlink:href="#glyph1-29"
           x="34.4377"
           y="100.1292"
           id="use667" />
        <use
           xlink:href="#glyph1-30"
           x="43.431"
           y="100.1292"
           id="use669" />
        <use
           xlink:href="#glyph1-31"
           x="52.4243"
           y="100.1292"
           id="use671" />
      </g>
    </g>
  </g>
</svg>
