<?xml version="1.0" encoding="UTF-8" standalone="no"?>
<svg
        width="12.175pt"
        height="13.122581pt"
        viewBox="0 0 12.175 13.122581"
        version="1.2"
        id="svg12"
        sodipodi:docname="upload_location.svg"
        inkscape:version="1.1.1 (3bf5ae0d25, 2021-09-20)"
        xmlns:inkscape="http://www.inkscape.org/namespaces/inkscape"
        xmlns:sodipodi="http://sodipodi.sourceforge.net/DTD/sodipodi-0.dtd"
        xmlns="http://www.w3.org/2000/svg"
>
  <defs
     id="defs16" />
  <sodipodi:namedview
     id="namedview14"
     pagecolor="#ffffff"
     bordercolor="#666666"
     borderopacity="1.0"
     inkscape:pageshadow="2"
     inkscape:pageopacity="0.0"
     inkscape:pagecheckerboard="0"
     inkscape:document-units="pt"
     showgrid="false"
     inkscape:zoom="44.179573"
     inkscape:cx="8.11461"
     inkscape:cy="8.748387"
     inkscape:window-width="1920"
     inkscape:window-height="991"
     inkscape:window-x="-9"
     inkscape:window-y="-9"
     inkscape:window-maximized="1"
     inkscape:current-layer="svg12" />
  <g
     id="surface21710">
    <path
       style=" stroke:none;fill-rule:nonzero;fill:rgb(13.699341%,13.699341%,13.699341%);fill-opacity:1;"
       d="M 2.125 1.402344 C 2.023438 1.410156 1.929688 1.382812 1.851562 1.320312 C 1.773438 1.25 1.726562 1.167969 1.71875 1.0625 C 1.710938 0.960938 1.738281 0.863281 1.804688 0.785156 C 1.871094 0.707031 1.953125 0.660156 2.058594 0.652344 L 10.371094 0.652344 C 10.472656 0.644531 10.566406 0.675781 10.644531 0.738281 C 10.722656 0.808594 10.769531 0.894531 10.777344 0.992188 C 10.785156 1.101562 10.757812 1.191406 10.691406 1.269531 C 10.625 1.351562 10.539062 1.394531 10.4375 1.402344 Z M 6.246094 12.648438 C 6.035156 12.652344 5.910156 12.546875 5.871094 12.339844 L 5.871094 3.429688 L 3.144531 6.160156 C 2.996094 6.3125 2.839844 6.324219 2.664062 6.207031 L 2.613281 6.160156 C 2.484375 6.03125 2.464844 5.832031 2.566406 5.691406 L 2.613281 5.640625 L 5.984375 2.265625 C 6.035156 2.210938 6.101562 2.179688 6.171875 2.15625 L 6.246094 2.152344 C 6.371094 2.152344 6.472656 2.199219 6.546875 2.304688 L 9.890625 5.640625 C 9.953125 5.707031 9.988281 5.785156 9.992188 5.886719 C 9.996094 5.980469 9.964844 6.066406 9.902344 6.136719 C 9.84375 6.210938 9.765625 6.253906 9.671875 6.269531 C 9.578125 6.28125 9.488281 6.261719 9.410156 6.207031 L 9.359375 6.160156 L 6.621094 3.4375 L 6.621094 12.273438 C 6.621094 12.480469 6.457031 12.648438 6.246094 12.648438 "
       id="path9" />
  </g>
</svg>
